<svg xmlns="http://www.w3.org/2000/svg" id="Layer_1" width="250" height="auto" data-name="Layer 1" viewBox="0 0 2796.31 587.15"><defs><style>.cls-1{isolation:isolate;}.cls-2{fill:#ed6b21;}.cls-3{fill:#02d0b7;}.cls-4{fill:#2b2a29;}.cls-5{fill:#fff;}</style></defs><title>logo-vertical</title><g class="cls-1"><g class="cls-1"><path d="M740,201.42q52.15,0,52.16,53.44v22.72Q792.18,331,740,331h-83.2V308.3h81q30.08,0,30.08-31v-20.8q0-31-30.08-31H644V435H619.7V201.42Z"/></g><g class="cls-1"><path d="M912.5,268q44.79,0,44.8,44.16v13.44q0,36.81-42.24,36.8H837.62V343.5h71q25.92,0,25.92-22.08v-7.68q0-25.61-26.24-25.6H857.78q-33,0-33,33.92v57.28q0,33,32,33h95V435H853.94q-52.16,0-52.16-53.44V321.42q0-53.44,52.16-53.44Z"/></g><g class="cls-1"><path d="M1024.5,213.58V268h36.16v20.8H1024.5V435h-23.36V288.78H969.78V268h31.36v-54.4Z"/></g><g class="cls-1"><path d="M1170.42,268.3v23h-41q-33,0-33,34.24V435h-23.36V321.74q0-53.43,52.16-53.44Z"/><path d="M1293.62,268q52.16,0,52.16,53.44v60.16q0,53.44-52.16,53.44H1237q-52.17,0-52.16-53.44V321.42q0-53.44,52.16-53.44Zm-85.44,109.76q0,34.25,33.28,34.24h47.68q33.27,0,33.28-34.24V325.26q0-33.92-33.28-33.92h-47.68q-33.29,0-33.28,33.92Z"/><path d="M1517.93,201.42v24h-92.16q-32.32,0-32.32,33V378.06q0,33,32.32,33h92.16v24h-96.64q-52.15,0-52.16-53.12V254.54q0-53.11,52.16-53.12Z"/><path d="M1646.89,268q52.15,0,52.16,53.44v60.16q0,53.44-52.16,53.44h-56.64q-52.17,0-52.16-53.44V321.42q0-53.44,52.16-53.44Zm-85.44,109.76q0,34.25,33.28,34.24h47.68q33.27,0,33.28-34.24V325.26q0-33.92-33.28-33.92h-47.68q-33.29,0-33.28,33.92Z"/><path d="M1831.85,268q52.15,0,52.16,53.44V435h-23.36V325.26q0-33.92-33.28-33.92H1748V435h-23.36V268Z"/><path d="M2043.36,268v20.16h-94.72q-21.44,0-21.44,19.84V321.1q0,18.24,19.84,18.24h67.2q36.48,0,36.48,34.24V397.9q0,37.13-39.36,37.12H1906.08V414.86h99.2q22.73,0,22.72-19.84V376.14q0-18.24-19.52-18.24h-67.2q-36.79,0-36.8-34.24V304.78q0-36.79,38.4-36.8Z"/><path d="M2093.28,268.3V377.74q0,34.25,33,34.24H2172q33.27,0,33.28-34.24V268.3h23V381.58q0,53.44-52.16,53.44h-54.08q-52.17,0-52.16-53.44V268.3Z"/><path d="M2278.24,199.18V435h-23.36V199.18Z"/><path d="M2349.28,213.58V268h36.16v20.8h-36.16V435h-23.36V288.78h-31.36V268h31.36v-54.4Z"/><path d="M2425.75,199.18V236.3h-23.36V199.18Zm0,70.4V435h-23.36V269.58Z"/><path d="M2560.47,268q52.16,0,52.16,53.44V435h-23.36V325.26q0-33.92-33.28-33.92h-79.36V435h-23.36V268Z"/><path d="M2744.15,268q52.16,0,52.16,53.44V435q0,56.64-52.16,56.64h-76.48V468.94h72q33.28,0,33.28-36.48V325.26q0-33.92-33.28-33.92h-46.08q-33.28,0-33.28,33.92V371q0,32,33.28,32h66.56v21.76h-71q-52.17,0-52.16-50.24V321.42q0-53.44,52.16-53.44Z"/></g></g><path class="cls-2" d="M278.45,308.66v9.58c0,85,70.34,155.53,157.77,155.78,7.75,0,16.13-3.2,20.65-8.36,12.91-14.74,7.42-33.9-1.93-41-7.75-5.89-11.3-5.4-23.56-6.14C323,410.66,297.45,266.66,394.26,221.66c24.2-11,35.81-6.39,49-9.33,23.88-5.41,29.68-39.07,6.45-51.85-16.45-9.09-59,2.7-74.2,9.09C321,191.93,278.45,248.94,278.45,308.66Z"/><path class="cls-3" d="M97.45,158c-21.93,4.66-30.65,31.69-13.87,47.42,13.23,12.53,30.65,1.72,62.27,17a104.09,104.09,0,0,1,42.27,36.36c10.64,16.47,18.71,37.84,17.09,62.17-2.58,45.94-32.26,77.64-67.1,91.15-29.69,11.55-48.08.74-59.37,19.66-9.68,16.46-1,44,29.68,42,31.62-2.21,62.6-12,87.12-30.22,39.36-29.24,69.36-82.31,64.85-133.17-3.94-41.81-12.94-68.1-38.74-98.81a68.07,68.07,0,0,0-4.84-4.92l-15.16-14.25c-10.33-8.6-24.85-16.7-37.75-22.36-14.2-6.38-49.37-15.72-66.47-12Z"/><path class="cls-4" d="M255.53,0c-1.07,68.11-40,56.73-48.6,106.54a64.71,64.71,0,0,0,9.88,46.77c13.89,21.14,42.45,32.73,68.08,26.63a65.25,65.25,0,0,0,43.26-34.16c17.62-35.78-2.94-69.13-25.63-95.36L265.67,9.76C263,7.12,259.26.76,255.53,0Z"/><path class="cls-5" d="M297.18,165.51c13.35-3,24.83-18.1,28.83-31.52,4.81-16.88-1.07-36-10.41-45.14,3.2,14.24,10.14,22.37,3.2,44.12C312.13,152.9,300.65,159.81,297.18,165.51Z"/><path class="cls-5" d="M236.84,83.57c-10.68,2.84-16.56,17.48-5.61,14.84C241.91,96,248.58,80.31,236.84,83.57Z"/><path class="cls-3" d="M10,161.22a51.43,51.43,0,0,1,34.84,1c5.49,2,9.68,8.36,9.68,12.78v396c0,4.67-4.19,11.06-9.68,13-11.61,4.43-23.23,4.18-35.16-1.23-5.49-2.45-9.68-9.33-9.68-14C.32,442.28.32,304,.32,173.73c0-4.67,4.52-10.81,9.68-12.53Z"/></svg>
