<svg xmlns="http://www.w3.org/2000/svg" width="689.871" height="270.86" viewBox="0 0 689.871 270.86">
  <g id="undraw_page_not_found_su7k" transform="translate(0.15 -131.815)">
    <path id="Path_1651" data-name="Path 1651" d="M530.587,324.894c-55.156,0-94.758,36.209-94.758,120.7,0,95.753,39.6,121.1,94.758,121.1s97.117-27.76,97.117-121.1C627.7,345.815,585.744,324.894,530.587,324.894Zm.363,210.012c-38.2,0-58.161-22.933-58.161-89.254,0-58.518,20.776-89.378,58.978-89.378s58.978,20.27,58.978,89.378c0,64.649-21.593,89.254-59.8,89.254Z" transform="translate(-196.592 -185.337)" fill="#7d53de"/>
    <path id="Path_1652" data-name="Path 1652" d="M288.895,504.871h-22.8V436.157A13.608,13.608,0,0,0,252.641,422.4H247.3a13.608,13.608,0,0,0-13.449,13.761v68.715H169.524a7.643,7.643,0,0,1-6.576-3.8,8.015,8.015,0,0,1-.213-7.725L230.816,361.5a14.049,14.049,0,0,0,.867-10.781,13.662,13.662,0,0,0-7.016-8.092l-4.019-1.942a13.3,13.3,0,0,0-17.6,5.956L120.012,505.577a19.006,19.006,0,0,0-2.154,8.8h0a18.452,18.452,0,0,0,18.236,18.66h97.754v43.451a16.311,16.311,0,0,0,16.121,16.5h0a16.311,16.311,0,0,0,16.121-16.5V533.034h22.8a13.924,13.924,0,0,0,13.762-14.081h0a13.924,13.924,0,0,0-13.762-14.081Z" transform="translate(-82.686 -190.304)" fill="#7d53de"/>
    <path id="Path_1653" data-name="Path 1653" d="M946.89,504.871h-22.8V436.157A13.608,13.608,0,0,0,910.638,422.4h-5.344a13.608,13.608,0,0,0-13.449,13.761v68.715H827.52a7.643,7.643,0,0,1-6.576-3.8,8.015,8.015,0,0,1-.213-7.725L888.813,361.5a14.049,14.049,0,0,0,.868-10.781,13.662,13.662,0,0,0-7.016-8.092l-4.019-1.942a13.3,13.3,0,0,0-17.6,5.956L778.009,505.577a19.006,19.006,0,0,0-2.154,8.8h0a18.452,18.452,0,0,0,18.236,18.66h97.753v43.451a16.311,16.311,0,0,0,16.121,16.5h0a16.311,16.311,0,0,0,16.121-16.5V533.034h22.8a13.924,13.924,0,0,0,13.762-14.081h0a13.924,13.924,0,0,0-13.762-14.081Z" transform="translate(-318.4 -190.304)" fill="#7d53de"/>
    <path id="Path_1654" data-name="Path 1654" d="M298.7,492.618h-22.8V423.9a13.608,13.608,0,0,0-13.449-13.761H257.1A13.608,13.608,0,0,0,243.651,423.9v68.714H179.326a7.643,7.643,0,0,1-6.576-3.8,8.015,8.015,0,0,1-.213-7.725l68.081-131.848a14.05,14.05,0,0,0,.867-10.781,13.662,13.662,0,0,0-7.016-8.092l-4.019-1.942a13.3,13.3,0,0,0-17.6,5.956L129.815,493.324a19.006,19.006,0,0,0-2.154,8.8h0a18.452,18.452,0,0,0,18.236,18.66h97.753v43.451a16.311,16.311,0,0,0,16.121,16.5h0a16.311,16.311,0,0,0,16.121-16.5V520.781h22.8A13.924,13.924,0,0,0,312.459,506.7h0A13.924,13.924,0,0,0,298.7,492.618Z" transform="translate(-86.198 -186.097)" fill="none" stroke="#3f3d56" stroke-miterlimit="10" stroke-width="1"/>
    <path id="Path_1655" data-name="Path 1655" d="M965.27,492.618h-22.8V423.9a13.608,13.608,0,0,0-13.449-13.761h-5.343A13.608,13.608,0,0,0,910.225,423.9v68.714H845.9a7.643,7.643,0,0,1-6.576-3.8,8.015,8.015,0,0,1-.213-7.725l68.081-131.848a14.05,14.05,0,0,0,.867-10.781,13.662,13.662,0,0,0-7.016-8.092l-4.019-1.942a13.3,13.3,0,0,0-17.6,5.956L796.388,493.324a19.006,19.006,0,0,0-2.154,8.8h0a18.452,18.452,0,0,0,18.236,18.66h97.754v43.451a16.311,16.311,0,0,0,16.121,16.5h0a16.311,16.311,0,0,0,16.121-16.5V520.781h22.8A13.924,13.924,0,0,0,979.032,506.7h0a13.924,13.924,0,0,0-13.762-14.081Z" transform="translate(-324.984 -186.097)" fill="none" stroke="#3f3d56" stroke-miterlimit="10" stroke-width="1"/>
    <path id="Path_1656" data-name="Path 1656" d="M550.192,313.866c-55.156,0-94.758,36.209-94.758,120.7,0,95.753,39.6,121.1,94.758,121.1s97.117-27.76,97.117-121.1C647.31,334.787,605.349,313.866,550.192,313.866Zm.363,210.012c-38.2,0-58.161-22.933-58.161-89.254,0-58.518,20.775-89.378,58.978-89.378s58.978,20.27,58.978,89.378c0,64.649-21.592,89.254-59.8,89.254Z" transform="translate(-203.616 -181.551)" fill="none" stroke="#3f3d56" stroke-miterlimit="10" stroke-width="1"/>
    <path id="Path_1672" data-name="Path 1672" d="M1065.009,563.573a13.167,13.167,0,0,0,14.9-4.187,13.923,13.923,0,0,0,1.07-15.771,13.236,13.236,0,0,0-14.19-6.254l.334,7.035-3.253-6.029a13.506,13.506,0,0,0-6.856,7.7,13.819,13.819,0,0,0,8,17.508Z" transform="translate(-418.831 -258.177)" fill="#7d53de"/>
    <path id="Path_1673" data-name="Path 1673" d="M1093.6,639.02c-1.148-5.983,3.827-11.286,8.741-14.734s10.657-6.835,12.333-12.685c2.41-8.408-4.768-16.108-10.355-22.749a82.426,82.426,0,0,1-10.6-16.126,22.54,22.54,0,0,1-2.536-7.333c-.441-3.727.73-7.436,1.909-10.991q5.891-17.764,12.6-35.231" transform="translate(-431.322 -252.036)" fill="none" stroke="#3f3d56" stroke-miterlimit="10" stroke-width="1"/>
    <path id="Path_1674" data-name="Path 1674" d="M1065.859,560.815a13.167,13.167,0,0,0,14.9-4.187,13.923,13.923,0,0,0,1.07-15.771,13.236,13.236,0,0,0-14.19-6.254l.334,7.035-3.253-6.029a13.505,13.505,0,0,0-6.856,7.7,13.818,13.818,0,0,0,8,17.508Z" transform="translate(-419.136 -257.23)" fill="none" stroke="#3f3d56" stroke-miterlimit="10" stroke-width="1"/>
    <path id="Path_1675" data-name="Path 1675" d="M1092,510.766a13.446,13.446,0,0,1,9.614-8.667l1.1,6.688,2.039-7.024a13.4,13.4,0,0,1,12.582,9.7,13.833,13.833,0,0,1-5.2,15.216,13.112,13.112,0,0,1-15.746-.431A13.859,13.859,0,0,1,1092,510.766Z" transform="translate(-431.365 -246.059)" fill="#7d53de"/>
    <path id="Path_1676" data-name="Path 1676" d="M1093.142,507.088a13.446,13.446,0,0,1,9.614-8.667l1.1,6.688,2.039-7.024a13.4,13.4,0,0,1,12.582,9.7,13.833,13.833,0,0,1-5.2,15.215,13.111,13.111,0,0,1-15.746-.431,13.859,13.859,0,0,1-4.393-15.478Z" transform="translate(-431.774 -244.797)" fill="none" stroke="#3f3d56" stroke-miterlimit="10" stroke-width="1"/>
    <path id="Path_1677" data-name="Path 1677" d="M1103.125,611.626a13.235,13.235,0,0,0,16.511-6.76,13.848,13.848,0,0,0-4.691-17.553l-1.567,5.4-1.111-6.766a.23.23,0,0,0-.034-.013,13.275,13.275,0,0,0-17.11,8.187A13.756,13.756,0,0,0,1103.125,611.626Z" transform="translate(-432.483 -274.673)" fill="#65fefd"/>
    <path id="Path_1678" data-name="Path 1678" d="M1104.125,607.9a13.235,13.235,0,0,0,16.511-6.76,13.849,13.849,0,0,0-4.691-17.553l-1.567,5.4-1.111-6.766a.23.23,0,0,0-.034-.013,13.275,13.275,0,0,0-17.11,8.187,13.756,13.756,0,0,0,8,17.508Z" transform="translate(-432.841 -273.394)" fill="#7d53de" stroke="#3f3d56" stroke-miterlimit="10" stroke-width="1"/>
    <path id="Path_1679" data-name="Path 1679" d="M1086.266,651.673a13.291,13.291,0,0,0,26.111.9,13.761,13.761,0,0,0-7.169-15.57,13.157,13.157,0,0,0-16.368,3.969l5.951,9.165-8.131-4.865A13.843,13.843,0,0,0,1086.266,651.673Z" transform="translate(-429.524 -292.024)" fill="#57b894"/>
    <path id="Path_1680" data-name="Path 1680" d="M1087.116,648.916a13.29,13.29,0,0,0,26.111.9,13.761,13.761,0,0,0-7.169-15.57,13.156,13.156,0,0,0-16.368,3.969l5.951,9.165-8.131-4.865A13.841,13.841,0,0,0,1087.116,648.916Z" transform="translate(-429.829 -291.078)" fill="#7d53de" stroke="#3f3d56" stroke-miterlimit="10" stroke-width="1"/>
    <path id="Path_1681" data-name="Path 1681" d="M68.835,619.026a8.651,8.651,0,0,0,9.789-2.751,9.148,9.148,0,0,0,.7-10.362A8.7,8.7,0,0,0,70,601.8l.22,4.622-2.137-3.961a8.873,8.873,0,0,0-4.5,5.058,9.079,9.079,0,0,0,5.254,11.5Z" transform="translate(-63.054 -280.337)" fill="#57b894"/>
    <path id="Path_1682" data-name="Path 1682" d="M87.615,668.6c-.754-3.931,2.514-7.415,5.743-9.68s7-4.49,8.1-8.334c1.583-5.524-3.133-10.583-6.8-14.946a54.155,54.155,0,0,1-6.967-10.595,14.808,14.808,0,0,1-1.666-4.818c-.289-2.449.479-4.885,1.254-7.221q3.87-11.672,8.276-23.147" transform="translate(-71.26 -276.303)" fill="none" stroke="#3f3d56" stroke-miterlimit="10" stroke-width="1"/>
    <path id="Path_1683" data-name="Path 1683" d="M69.4,617.214a8.651,8.651,0,0,0,9.789-2.751,9.148,9.148,0,0,0,.7-10.362,8.7,8.7,0,0,0-9.323-4.109l.22,4.622-2.137-3.961a8.873,8.873,0,0,0-4.5,5.058,9.079,9.079,0,0,0,5.254,11.5Z" transform="translate(-63.256 -279.715)" fill="#7d53de" stroke="#3f3d56" stroke-miterlimit="10" stroke-width="1"/>
    <path id="Path_1684" data-name="Path 1684" d="M86.572,584.331a8.834,8.834,0,0,1,6.316-5.694l.723,4.394,1.34-4.615a8.805,8.805,0,0,1,8.267,6.371,9.089,9.089,0,0,1-3.414,10,8.614,8.614,0,0,1-10.345-.283,9.105,9.105,0,0,1-2.886-10.169Z" transform="translate(-71.29 -272.376)" fill="#57b894"/>
    <path id="Path_1685" data-name="Path 1685" d="M87.323,581.915a8.834,8.834,0,0,1,6.316-5.694l.723,4.394L95.7,576a8.805,8.805,0,0,1,8.267,6.371,9.089,9.089,0,0,1-3.414,10,8.615,8.615,0,0,1-10.345-.283,9.105,9.105,0,0,1-2.886-10.169Z" transform="translate(-71.559 -271.546)" fill="#7d53de" stroke="#3f3d56" stroke-miterlimit="10" stroke-width="1"/>
    <path id="Path_1686" data-name="Path 1686" d="M93.882,650.6a8.7,8.7,0,0,0,10.848-4.441,9.1,9.1,0,0,0-3.082-11.532l-1.029,3.546-.73-4.446-.022-.009a8.722,8.722,0,0,0-11.242,5.379,9.038,9.038,0,0,0,5.257,11.5Z" transform="translate(-72.025 -291.176)" fill="#57b894"/>
    <path id="Path_1687" data-name="Path 1687" d="M94.533,648.15a8.7,8.7,0,0,0,10.848-4.441,9.1,9.1,0,0,0-3.082-11.532l-1.029,3.546-.73-4.446-.022-.009a8.722,8.722,0,0,0-11.242,5.379,9.038,9.038,0,0,0,5.257,11.5Z" transform="translate(-72.258 -290.335)" fill="#7d53de" stroke="#3f3d56" stroke-miterlimit="10" stroke-width="1"/>
    <path id="Path_1688" data-name="Path 1688" d="M82.8,676.909a8.732,8.732,0,0,0,17.155.591,9.041,9.041,0,0,0-4.71-10.23,8.644,8.644,0,0,0-10.754,2.607L88.4,675.9l-5.342-3.2a9.093,9.093,0,0,0-.259,4.206Z" transform="translate(-70.079 -302.575)" fill="#57b894"/>
    <path id="Path_1689" data-name="Path 1689" d="M83.364,675.1a8.732,8.732,0,0,0,17.155.591,9.041,9.041,0,0,0-4.71-10.23,8.644,8.644,0,0,0-10.754,2.607l3.91,6.022-5.342-3.2A9.093,9.093,0,0,0,83.364,675.1Z" transform="translate(-70.281 -301.953)" fill="#7d53de" stroke="#3f3d56" stroke-miterlimit="10" stroke-width="1"/>
    <ellipse id="Ellipse_123" data-name="Ellipse 123" cx="10.91" cy="14.447" rx="10.91" ry="14.447" transform="translate(297.747 224.996)" fill="#2f2e41"/>
    <ellipse id="Ellipse_124" data-name="Ellipse 124" cx="10.91" cy="14.447" rx="10.91" ry="14.447" transform="translate(357.111 225.324)" fill="#2f2e41"/>
    <path id="Path_1690" data-name="Path 1690" d="M601.29,536.32c0,6.527-8.908,11.82-19.895,11.82S561.5,542.848,561.5,536.32c0-5.654,6.681-10.382,15.608-11.538a31.439,31.439,0,0,1,4.287-.282,31.828,31.828,0,0,1,7.143.788C596,526.989,601.29,531.29,601.29,536.32Z" transform="translate(-241.611 -253.865)" fill="#2f2e41"/>
    <ellipse id="Ellipse_125" data-name="Ellipse 125" cx="10.91" cy="14.447" rx="10.91" ry="14.447" transform="translate(300.315 221.712)" fill="none" stroke="#3f3d56" stroke-miterlimit="10" stroke-width="1"/>
    <ellipse id="Ellipse_126" data-name="Ellipse 126" cx="10.91" cy="14.447" rx="10.91" ry="14.447" transform="translate(359.678 222.041)" fill="none" stroke="#3f3d56" stroke-miterlimit="10" stroke-width="1"/>
    <ellipse id="Ellipse_127" data-name="Ellipse 127" cx="19.895" cy="11.82" rx="19.895" ry="11.82" transform="translate(322.456 267.352)" fill="none" stroke="#3f3d56" stroke-miterlimit="10" stroke-width="1"/>
    <path id="Path_1691" data-name="Path 1691" d="M597.193,526.1a3.283,3.283,0,0,1-.847,2.227,2.756,2.756,0,0,1-2.041.925h-6.418A3.034,3.034,0,0,1,585,526.1a3.276,3.276,0,0,1,.526-1.8,29.511,29.511,0,0,1,4.287-.3,29.927,29.927,0,0,1,7.143.841A3.394,3.394,0,0,1,597.193,526.1Z" transform="translate(-250.029 -253.693)" fill="#fff"/>
    <ellipse id="Ellipse_128" data-name="Ellipse 128" cx="3.209" cy="3.283" rx="3.209" ry="3.283" transform="translate(308.016 228.936)" fill="#fff"/>
    <ellipse id="Ellipse_129" data-name="Ellipse 129" cx="3.209" cy="3.283" rx="3.209" ry="3.283" transform="translate(367.701 228.936)" fill="#fff"/>
    <ellipse id="Ellipse_130" data-name="Ellipse 130" cx="3.209" cy="3.283" rx="3.209" ry="3.283" transform="translate(370.909 259.8)" fill="#6c63ff" opacity="0.3"/>
    <ellipse id="Ellipse_131" data-name="Ellipse 131" cx="3.209" cy="3.283" rx="3.209" ry="3.283" transform="translate(292.613 259.8)" fill="#6c63ff" opacity="0.3"/>
  </g>
</svg>
