<svg xmlns="http://www.w3.org/2000/svg" width="1362.73" height="466.15" viewBox="0 0 1362.73 466.15">
  <g id="Group_373" data-name="Group 373" transform="translate(-281.66 -3448.42)">
    <path id="Path_1999" data-name="Path 1999" d="M457.27,512.56s-8.56,1.75-5.68,3.23S457.27,512.56,457.27,512.56Z" transform="translate(363.5 3276.78)" fill="#7c52dd" opacity="0.1"/>
    <circle id="Ellipse_192" data-name="Ellipse 192" cx="15.27" cy="15.27" r="15.27" transform="translate(836.66 3448.42)" fill="#7c52dd" opacity="0.1"/>
    <circle id="Ellipse_193" data-name="Ellipse 193" cx="25.6" cy="25.6" r="25.6" transform="translate(698.96 3533)" fill="#7c52dd" opacity="0.1"/>
    <circle id="Ellipse_194" data-name="Ellipse 194" cx="25.6" cy="25.6" r="25.6" transform="translate(390.08 3683.22)" fill="#7c52dd" opacity="0.1"/>
    <circle id="Ellipse_195" data-name="Ellipse 195" cx="15.27" cy="15.27" r="15.27" transform="translate(1382.16 3657.42)" fill="#7c52dd" opacity="0.1"/>
    <circle id="Ellipse_196" data-name="Ellipse 196" cx="25.6" cy="25.6" r="25.6" transform="translate(1441.19 3479)" fill="#7c52dd" opacity="0.1"/>
    <circle id="Ellipse_197" data-name="Ellipse 197" cx="25.6" cy="25.6" r="25.6" transform="translate(1351.08 3703.22)" fill="#7c52dd" opacity="0.1"/>
    <circle id="Ellipse_198" data-name="Ellipse 198" cx="8.65" cy="8.65" r="8.65" transform="translate(525.62 3691.7)" fill="#7c52dd" opacity="0.1"/>
    <circle id="Ellipse_199" data-name="Ellipse 199" cx="14.5" cy="14.5" r="14.5" transform="translate(556.85 3653.11)" fill="#7c52dd" opacity="0.1"/>
    <circle id="Ellipse_200" data-name="Ellipse 200" cx="14.5" cy="14.5" r="14.5" transform="translate(487.45 3675.6)" fill="#7c52dd" opacity="0.1"/>
    <circle id="Ellipse_201" data-name="Ellipse 201" cx="8.65" cy="8.65" r="8.65" transform="translate(1166.62 3639.7)" fill="#7c52dd" opacity="0.1"/>
    <circle id="Ellipse_202" data-name="Ellipse 202" cx="14.5" cy="14.5" r="14.5" transform="translate(1225.85 3504.11)" fill="#7c52dd" opacity="0.1"/>
    <circle id="Ellipse_203" data-name="Ellipse 203" cx="14.5" cy="14.5" r="14.5" transform="translate(1128.45 3623.6)" fill="#7c52dd" opacity="0.1"/>
    <circle id="Ellipse_204" data-name="Ellipse 204" cx="36.25" cy="36.25" r="36.25" transform="translate(440.83 3468.07)" fill="#7c52dd" opacity="0.1"/>
    <circle id="Ellipse_205" data-name="Ellipse 205" cx="20.92" cy="20.92" r="20.92" transform="translate(883.16 3519.4)" fill="#7c52dd" opacity="0.1"/>
    <circle id="Ellipse_206" data-name="Ellipse 206" cx="20.92" cy="20.92" r="20.92" transform="translate(1026.16 3836.4)" fill="#7c52dd" opacity="0.1"/>
    <circle id="Ellipse_207" data-name="Ellipse 207" cx="36.25" cy="36.25" r="36.25" transform="translate(281.83 3842.07)" fill="#7c52dd" opacity="0.1"/>
    <circle id="Ellipse_208" data-name="Ellipse 208" cx="25.6" cy="25.6" r="25.6" transform="translate(525.96 3785)" fill="#7c52dd" opacity="0.1"/>
    <circle id="Ellipse_209" data-name="Ellipse 209" cx="25.6" cy="25.6" r="25.6" transform="translate(1455.19 3832)" fill="#7c52dd" opacity="0.1"/>
    <circle id="Ellipse_210" data-name="Ellipse 210" cx="25.6" cy="25.6" r="25.6" transform="translate(1593.19 3621)" fill="#7c52dd" opacity="0.1"/>
    <circle id="Ellipse_211" data-name="Ellipse 211" cx="15.27" cy="15.27" r="15.27" transform="translate(281.66 3593.42)" fill="#24fffd" opacity="0.1"/>
  </g>
</svg>
