<svg id="undraw_subscriber_vabu" xmlns="http://www.w3.org/2000/svg" width="726" height="594.46" viewBox="0 0 726 594.46">
  <ellipse id="Ellipse_240" data-name="Ellipse 240" cx="264.549" cy="278.91" rx="264.549" ry="278.91" transform="translate(119.153)" fill="#f2f2f2"/>
  <path id="Path_2122" data-name="Path 2122" d="M735.022,797.028c0,11.563-144.8,35.892-323.416,35.892S88.19,808.591,88.19,797.028s144.8-5.982,323.416-5.982S735.022,785.465,735.022,797.028Z" transform="translate(-88.189 -238.46)" fill="#3f3d56"/>
  <path id="Path_2123" data-name="Path 2123" d="M735.022,797.028c0,11.563-144.8,35.892-323.416,35.892S88.19,808.591,88.19,797.028s144.8-5.982,323.416-5.982S735.022,785.465,735.022,797.028Z" transform="translate(-88.189 -238.46)" opacity="0.1"/>
  <ellipse id="Ellipse_241" data-name="Ellipse 241" cx="323.416" cy="20.937" rx="323.416" ry="20.937" transform="translate(0 537.632)" fill="#3f3d56"/>
  <ellipse id="Ellipse_242" data-name="Ellipse 242" cx="130.501" cy="12.712" rx="130.501" ry="12.712" transform="translate(195.043 538.379)" opacity="0.1"/>
  <path id="Path_2124" data-name="Path 2124" d="M827.189,667.412c0,47.261,28.122,85.5,62.876,85.5" transform="translate(-303.056 -207.613)" fill="#3f3d56"/>
  <path id="Path_2125" data-name="Path 2125" d="M915.841,752.592c0-47.792,31.383-86.464,70.166-86.464" transform="translate(-328.832 -207.289)" fill="#7d53de"/>
  <path id="Path_2126" data-name="Path 2126" d="M859.309,673.142c0,44.893,17.933,81.22,40.095,81.22" transform="translate(-312.395 -209.058)" fill="#7d53de"/>
  <path id="Path_2127" data-name="Path 2127" d="M915.841,744.49c0-61.067,36.274-110.482,81.1-110.482" transform="translate(-328.832 -199.186)" fill="#3f3d56"/>
  <path id="Path_2128" data-name="Path 2128" d="M897.19,780.853s8.917-.29,11.6-2.307,13.716-4.427,14.383-1.191,13.4,16.092,3.333,16.178-23.391-1.653-26.073-3.376S897.19,780.853,897.19,780.853Z" transform="translate(-323.409 -234.947)" fill="#a8a8a8"/>
  <path id="Path_2129" data-name="Path 2129" d="M926.69,794.116c-10.067.086-23.391-1.653-26.073-3.376-2.043-1.312-2.857-6.019-3.129-8.19l-.3.012s.565,7.582,3.247,9.3,16.006,3.461,26.074,3.376c2.906-.025,3.91-1.115,3.855-2.729C929.961,793.489,928.854,794.1,926.69,794.116Z" transform="translate(-323.41 -236.656)" opacity="0.2"/>
  <rect id="Rectangle_585" data-name="Rectangle 585" width="160.289" height="98.703" transform="translate(251.782 457.623)" fill="#3f3d56"/>
  <path id="Path_2130" data-name="Path 2130" d="M661.671,617.253H543.5c-8.07,0-14.612-6.9-14.612-15.405V544.767a6.265,6.265,0,0,1,1.806-4.429l62.621-62.582a12.979,12.979,0,0,1,18.544,0l59.706,59.669A16.376,16.376,0,0,1,676.284,549v52.846c0,8.508-6.542,15.405-14.612,15.4Z" transform="translate(-216.323 -158.788)" fill="#2f2e41"/>
  <path id="Path_2131" data-name="Path 2131" d="M440.7,517.441H586.867v50.064c0,11.866-9.124,21.484-20.378,21.484H461.075c-11.255,0-20.378-9.619-20.379-21.484Z" transform="translate(-128.134 -130.526)" opacity="0.1"/>
  <path id="Path_2132" data-name="Path 2132" d="M528.668,564.962" transform="translate(-216.26 -181.769)" fill="none" stroke="#3f3d56" stroke-miterlimit="10" stroke-width="1"/>
  <rect id="Rectangle_586" data-name="Rectangle 586" width="108.706" height="114.607" rx="11.336" transform="translate(331.755 337.868)" fill="#7d53de"/>
  <path id="Path_2133" data-name="Path 2133" d="M576.463,520.883v62.986H467.757V520.883l54.353,27.7Z" transform="translate(-136.002 -131.394)" opacity="0.1"/>
  <path id="Path_2134" data-name="Path 2134" d="M602.367,603.114l-69.644-35.489a2.7,2.7,0,0,0-2.731.159,3.02,3.02,0,0,0-1.324,2.524v61.059a9.072,9.072,0,0,0,8.823,9.3H667.244a9.072,9.072,0,0,0,8.823-9.3V571.353a3.685,3.685,0,0,0-1.616-3.079,3.3,3.3,0,0,0-3.333-.194Z" transform="translate(-216.26 -182.366)" fill="#2f2e41"/>
  <rect id="Rectangle_587" data-name="Rectangle 587" width="30.401" height="4.533" transform="translate(341.12 348.389)" fill="#f2f2f2"/>
  <rect id="Rectangle_588" data-name="Rectangle 588" width="90.281" height="2.59" transform="translate(338.663 364.9)" fill="#f2f2f2"/>
  <rect id="Rectangle_589" data-name="Rectangle 589" width="90.281" height="2.59" transform="translate(338.663 373.642)" fill="#f2f2f2"/>
  <rect id="Rectangle_590" data-name="Rectangle 590" width="90.281" height="2.59" transform="translate(338.663 382.383)" fill="#f2f2f2"/>
  <ellipse id="Ellipse_243" data-name="Ellipse 243" cx="12.59" cy="13.298" rx="12.59" ry="13.298" transform="translate(323.617 326.374)" fill="#fff"/>
  <path id="Path_2135" data-name="Path 2135" d="M556.055,485.945c-8.31,0-15.047,7.1-15.047,15.864s6.737,15.864,15.047,15.864,15.047-7.1,15.047-15.864C571.077,493.058,564.355,485.971,556.055,485.945Zm-3.089,24.322-7.711-8.13,2.163-2.28,5.556,5.857L564.7,493.351l2.163,2.28-13.9,14.636Z" transform="translate(-219.848 -161.837)" fill="#57b894"/>
  <rect id="Rectangle_591" data-name="Rectangle 591" width="326.253" height="143.568" transform="translate(399.747 83.006)" fill="#3f3d56"/>
  <path id="Path_2136" data-name="Path 2136" d="M821.749,295.868H784.868a143.274,143.274,0,0,1,0-46.36h36.881A87.773,87.773,0,0,0,821.749,295.868Z" transform="translate(-290.203 -102.195)" fill="#ff6584"/>
  <path id="Path_2137" data-name="Path 2137" d="M967.08,295.868H930.2a143.272,143.272,0,0,1,0-46.36H967.08a87.774,87.774,0,0,0,0,46.36Z" transform="translate(-332.458 -102.195)" fill="#ff6584"/>
  <path id="Path_2138" data-name="Path 2138" d="M747.918,253.868H711.037a143.27,143.27,0,0,1,0-46.36h36.881A87.773,87.773,0,0,0,747.918,253.868Z" transform="translate(-268.736 -91.601)" fill="#7d53de"/>
  <path id="Path_2139" data-name="Path 2139" d="M856.811,253.868h36.881a143.271,143.271,0,0,0,0-46.36H856.811A87.772,87.772,0,0,1,856.811,253.868Z" transform="translate(-311.669 -91.601)" fill="#7d53de"/>
  <path id="Path_2140" data-name="Path 2140" d="M999.811,253.868h36.881a143.277,143.277,0,0,0,0-46.36H999.811A87.773,87.773,0,0,1,999.811,253.868Z" transform="translate(-353.247 -91.601)" fill="#7d53de"/>
  <path id="Path_2141" data-name="Path 2141" d="M334.029,214.424a5.05,5.05,0,0,0-3.057.72,8.377,8.377,0,0,0-2.068,2.877,33.907,33.907,0,0,1-8.893,10.591c-2.643,2.041-6,4.586-5.55,8.349a11.659,11.659,0,0,0,1.288,3.524c2.438,5.188,9.09,9.2,8.436,15.118,2.422-4.275-.818-6.389,1.6-10.663,1.153-2.036,3.157-4.334,4.9-3.055.583.428.966,1.2,1.573,1.571,1.449.9,2.99-.817,4.272-2.031,4.422-4.185,10.71-3.089,16.213-1.785,2.6.616,5.451,1.423,6.987,4.041,2.019,3.442-1.918,7.159-2.913,11.05a2.207,2.207,0,0,0,.424,1.915,1.96,1.96,0,0,0,1.734.724c1.651-.172,3.607-.312,3.7-1.076,2.077.078,4.623-.17,5.513-2.451a10.065,10.065,0,0,0,.427-2.789c.327-3.831,1.869-7.325,2.89-10.971s1.466-7.919-.258-11.151A12.783,12.783,0,0,0,369,226.037C359.212,216.055,346.349,214.409,334.029,214.424Z" transform="translate(-153.966 -93.341)" fill="#2f2e41"/>
  <path id="Path_2142" data-name="Path 2142" d="M327.936,278.3s2.128,18.694-5.674,20.189,7.092,26.919,7.092,26.919l35.462,4.487-8.511-29.91s-5.674-2.243-2.128-17.2S327.936,278.3,327.936,278.3Z" transform="translate(-155.589 -108.559)" fill="#a0616a"/>
  <path id="Path_2143" data-name="Path 2143" d="M212.5,656.5l2.837,41.126h14.894L225.976,656.5Z" transform="translate(-61.785 -165.604)" fill="#a0616a"/>
  <path id="Path_2144" data-name="Path 2144" d="M366.5,552l2.128,34.4,16.313-7.477L378.557,550.5Z" transform="translate(-106.562 -138.865)" fill="#a0616a"/>
  <path id="Path_2145" data-name="Path 2145" d="M285.689,488.213s.709,43.369,4.965,57.577,3.546,14.955,2.837,17.2-1.418.748-1.418,4.486-1.419,62.811,0,68.045-4.255,14.207,0,14.955,24.114,0,24.824-4.487-5.674-5.982-2.837-8.973,7.092-64.306,7.092-64.306l9.929-42.622,18.44-22.432H388.53l12.057,49.351s-4.965,14.207-1.418,14.207,24.824,4.487,24.824-11.964S416.9,494.2,415.481,492.7s.709-6.73-1.418-8.973-26.951-17.946-36.172-20.937-22.155-6.551-22.155-6.551Z" transform="translate(-145.613 -154.344)" fill="#2f2e41"/>
  <path id="Path_2146" data-name="Path 2146" d="M472.944,632.8s-10.639-3.739-15.6,7.477-2.837,14.207-2.837,14.207,16.313,5.982,19.15,2.991c1.234-1.3,5.154-1.753,9.188-1.849,6.145-.145,7.779-9.311,1.976-11.445q-.26-.1-.526-.166C478.617,642.519,472.944,632.8,472.944,632.8Z" transform="translate(-194.564 -198.73)" fill="#2f2e41"/>
  <ellipse id="Ellipse_244" data-name="Ellipse 244" cx="21.277" cy="22.432" rx="21.277" ry="22.432" transform="translate(167.027 137.213)" fill="#a0616a"/>
  <path id="Path_2147" data-name="Path 2147" d="M307.42,316.812s34.753,7.477,43.264-4.486,12.057,33.649,12.057,33.649L367,393.83,360.614,420s-33.335,28.414-43.973,30.658-26.951,3.739-26.951,3.739,4.965-83,4.965-84.5S307.42,316.812,307.42,316.812Z" transform="translate(-146.776 -117.537)" fill="#7d53de"/>
  <path id="Path_2148" data-name="Path 2148" d="M311.772,299.527s-7.732-4.67-9.86-.183-21.987,15.7-24.114,15.7,4.255,62.063,1.418,69.541-16.313,62.063-8.511,66.55,2.128-4.487,9.929,6.73,46.1,11.216,48.229,6.73-17.022-38.135-13.476-69.541,9.22-74.775,4.255-80.757S311.772,299.527,311.772,299.527Z" transform="translate(-140.558 -114.275)" fill="#575a89"/>
  <path id="Path_2149" data-name="Path 2149" d="M365.689,305.791l.988-3.584s29.51,10.314,30.928,17.044.709,53.838-4.255,57.577-12.057,9.721-7.092,18.694,10.639,18.694,14.894,19.441,12.057,5.982,9.929,11.216-27.661-4.486-27.661-4.486-17.022-13.459-16.313-34.4S365.689,305.791,365.689,305.791Z" transform="translate(-168.873 -115.489)" fill="#575a89"/>
  <path id="Path_2150" data-name="Path 2150" d="M387.555,425l-17.022,33.649s-24.824,26.919-10.639,29.91,21.987-24.676,21.987-24.676l18.44-27.667Z" transform="translate(-165.915 -146.464)" fill="#a0616a"/>
  <path id="Path_2151" data-name="Path 2151" d="M336.986,222.274a4.617,4.617,0,0,0-2.488.509,6.03,6.03,0,0,0-1.683,2.034,25.174,25.174,0,0,1-7.24,7.486c-2.151,1.443-4.886,3.241-4.518,5.9a7.584,7.584,0,0,0,1.049,2.491,20.493,20.493,0,0,1,2.258,12.212l5.915-9.064c.939-1.439,2.57-3.063,3.988-2.159.475.3.786.845,1.281,1.111,1.179.633,2.434-.578,3.478-1.435,3.6-2.958,8.718-2.183,13.2-1.261,2.115.435,4.437,1.006,5.687,2.856,2.077,3.074-.092,7.517,1.121,11.069a3.289,3.289,0,0,0,1.281-2.155c1.691.055,3.763-.12,4.488-1.732a6.258,6.258,0,0,0,.347-1.971c.266-2.707,1.521-5.178,2.353-7.754s1.193-5.6-.21-7.882a9.346,9.346,0,0,0-1.839-2.046C357.486,223.427,347.014,222.264,336.986,222.274Z" transform="translate(-155.886 -95.322)" fill="#2f2e41"/>
  <path id="Path_2152" data-name="Path 2152" d="M398.363,321l6.608,1.849s15.378,41.52,11.832,69.935-5.674,22.432-5.674,22.432-5.674-13.459-18.44-10.468Z" transform="translate(-176.723 -120.229)" fill="#575a89"/>
  <path id="Path_2153" data-name="Path 2153" d="M297.3,755.995c-1.71,2.45-1.367,5.953-2.882,8.542-1.313,2.244-3.788,3.421-5.431,5.41a14.54,14.54,0,0,0-1.4,2.117c-1.524,2.691-2.762,6.14-1.262,8.845,1.207,2.176,3.745,3.027,6.072,3.606a21.18,21.18,0,0,0,8.973.759,9.006,9.006,0,0,0,6.944-5.464,21.868,21.868,0,0,1,.742-2.209c1.613-3.347,6.671-3.383,8.322-6.71,1.155-2.328.093-5.142-.968-7.519l-3.241-7.26c-1.076-2.409-5.436-1.024-7.71-1.6C302.5,753.758,299.431,752.928,297.3,755.995Z" transform="translate(-145.601 -229.407)" fill="#2f2e41"/>
  <path id="Path_2154" data-name="Path 2154" d="M234.2,474.238l12.576,18.054,49.044-26.715,2.829-1.534-61.276-4.172Z" transform="translate(-68.095 -116.003)" fill="#7d53de"/>
  <path id="Path_2155" data-name="Path 2155" d="M235.165,477.143l11.893,17.075L296.1,467.5Z" transform="translate(-68.375 -117.929)" opacity="0.2"/>
  <path id="Path_2156" data-name="Path 2156" d="M228.7,496.707l2.275-15.657L297.3,465.471Z" transform="translate(-66.497 -117.416)" fill="#7d53de"/>
  <path id="Path_2157" data-name="Path 2157" d="M268.689,443.234l29.788,48.6s18.44,24.676,24.114,13.459-19.859-29.91-19.859-29.91L283.583,438Z" transform="translate(-140.67 -149.743)" fill="#a0616a"/>
  <path id="Path_2158" data-name="Path 2158" d="M281.009,322.5l-5.674-1.5s-11.348,3.739-14.185,19.441-.709,78.513,2.837,79.261,17.515-10.937,19.751-8.459-4.857-10.234-2.729-16.964S281.009,322.5,281.009,322.5Z" transform="translate(-138.096 -120.229)" fill="#575a89"/>
</svg>
