<svg xmlns="http://www.w3.org/2000/svg" xmlns:xlink="http://www.w3.org/1999/xlink" width="298.686" height="479.239" viewBox="0 0 298.686 479.239">
  <defs>
    <linearGradient id="linear-gradient" x1="0.5" y1="1" x2="0.5" gradientUnits="objectBoundingBox">
      <stop offset="0" stop-color="gray" stop-opacity="0.251"/>
      <stop offset="0.54" stop-color="gray" stop-opacity="0.122"/>
      <stop offset="1" stop-color="gray" stop-opacity="0.102"/>
    </linearGradient>
  </defs>
  <g id="Group_340" data-name="Group 340" transform="translate(-15224 -2910.723)">
    <ellipse id="Ellipse_132" data-name="Ellipse 132" cx="69.135" cy="11.997" rx="69.135" ry="11.997" transform="translate(15352.464 3365.969)" fill="#6c63ff" opacity="0.1"/>
    <path id="Path_1719" data-name="Path 1719" d="M544.7,588.73l-.651,6.664-3.92-.006,2.088-6.657Z" transform="translate(14977.983 2653.605)" opacity="0.1"/>
    <path id="Path_1729" data-name="Path 1729" d="M512.048,244.388c-1.32-.722-15.7-11.967-15.7-11.967l-23.21-15.235s-.122-.361-.343-.981c6.368-7.482,4.978-18.341-1.5-25.974-7.851-9.258-43.326-29.188-54.014-12.141-1.495,2.408-1.547,5.141-1.937,7.789a32.775,32.775,0,0,1-8.473,17.216c-3.559,3.895-8.229,7.482-10.276,11.888a.73.73,0,0,0-.058-.169,11.3,11.3,0,0,0-1.064,3.01c-1.018,5.375,2.472,10.528,4.327,15.759a29.411,29.411,0,0,1,1.349,5.466c.047-.373.087-.74.128-1.114a36.154,36.154,0,0,1,.459,8.042c-12.881,2.715-12.887,25.522-12.887,25.522s-1.588,9.065-1.32,12.334.262,10.335.262,12.039-1.588,12.328-1.745,13.6a.318.318,0,0,1,0,.054c-.233,1.4-2.646,8.126,3.187,9.631.407.108.837.2,1.285.283.25,5.448.7,16.854.3,19.395,0,0,2.123,15.326,3.885,19.22a44.492,44.492,0,0,0,3.9,6.513,7.341,7.341,0,0,1-.9,2.643c-.9,1.342-.436,2.444,1.07,2.919-.052.463-.111.987-.174,1.577-.646,5.911-1.611,17.661.029,23.614,2.251,8.162,2.384,10.883,2.384,10.883a8.167,8.167,0,0,0,.93,3.8c.93,1.36,2.646,14.013,2.646,16.054s4.5,20.4,3.175,24.752-.262,10.474-.262,10.474-.8,10.745-1.745,13.056-1.326,39.578.128,49.233,2.384,17.679,2.384,17.679-.925,8.843-.134,10.065,2.251,8.572,1.192,8.975-1.588,3.4-1.588,3.4a30.311,30.311,0,0,0,1.809,2.546,9.706,9.706,0,0,1-1.192-.524c.419.6,1.047,1.457,1.82,2.408l-.727,9.782a1.634,1.634,0,0,0,1.163,1.715,13.005,13.005,0,0,0,13.155-3.828c6.618-6.934,8.869-5.983,10.061-10.2.128-.451.238-.9.331-1.318a4.335,4.335,0,0,0-6.089-4.948,32.977,32.977,0,0,0,.436-8.259c-.663-3.943-.529-14.278-.529-14.278l-.925-49.51s1.716-9.794,3.7-13.6,1.745-17.137,1.745-17.137l2.251-43.8,2.117-21.351s2.117-7.344,4.763.819c0,0-1.454,16.451-.791,20.4s1.588,23.121.925,27.334-3.571,27.34-1.745,33.185,3.862,12.93,3.454,15.247-1.745,52.5-1.745,52.5,3.577,9.631.93,12.785-.134,15.651-.134,15.651.32.235.867.56l-.076,1.041-.832,11.25a1.647,1.647,0,0,0,1.163,1.722,13,13,0,0,0,13.155-3.828c6.618-6.94,8.869-5.983,10.061-10.2.128-.451.238-.891.337-1.318a4.322,4.322,0,0,0-6.932-4.394l-.157.138a5.494,5.494,0,0,1-.518.4,2.488,2.488,0,0,1-.262.175c.663-3.106,1.628-8.427,1.163-10.919-.663-3.672.657-14.82.657-14.82s3.838-13.333,3.972-18.66l1.058-42.431s-.128-17.276.4-21.489,4.763-40.667,9-51.55c3.251-8.331,4.7-29.592,3.844-40.372-.047-.53-.093-1.041-.151-1.517,5.193-3.967,5.711-10.564,5.711-10.564s-4.769-9.426-9.357-13.417-5.577-10.853-5.414-13.772a7.314,7.314,0,0,0-1.588-4.894s-2.117-7.073-3.53-7.8a1.109,1.109,0,0,1-.308-.241c-.96-1.065-.221-4.111-.221-4.111v-.1c.169-.7,1.163-5.267.866-6.435-.355-1.264.174-7.253.174-7.253s3.356-10.335,2.826-18.5,6.886-7.434,6.886-7.434l22.9-.247h2.605a18.708,18.708,0,0,0,2.506-2.685c4.362-.536,13.184-2.239,14.172-7.223C518.846,251.828,513.374,245.117,512.048,244.388Zm-106.075,75.46.157-4.147c.541.482.9.789.9.789a6.709,6.709,0,0,1,.041,3.323,3.507,3.507,0,0,1-1.983,2.3,2.377,2.377,0,0,0-.32.175l-.221-2.342Zm83.046-72.835c-.971-.451-4.239-.361-5.92-.361a12.867,12.867,0,0,1-4.408-1.451c-.582-1.174-3.8-1.872-6.659-2.269-2.175-5.55-5.234-10.961-5.647-16.746a4.6,4.6,0,0,0-.029-.632l.331.6s13.329,8.8,14.83,11.437c1.163,2.01,6.763,6.5,9.357,8.512a2.667,2.667,0,0,1-1.425.987.762.762,0,0,1-.43-.078Z" transform="translate(14984.293 2799.847)" fill="url(#linear-gradient)"/>
    <path id="Path_1730" data-name="Path 1730" d="M508.248,827.679c-.1.421-.2.861-.331,1.306-1.163,4.214-3.39,3.238-9.886,10.119a12.729,12.729,0,0,1-12.951,3.8,1.622,1.622,0,0,1-1.163-1.71l.82-11.16.39-5.369s10.375,3.01,15.655-.813a6.278,6.278,0,0,0,.512-.4,1.616,1.616,0,0,0,.116-.12,4.125,4.125,0,0,1,4.922-.359,4.454,4.454,0,0,1,1.917,4.706Z" transform="translate(14943.051 2540.751)" fill="#67647e"/>
    <path id="Path_1731" data-name="Path 1731" d="M452.248,820.679c-.1.421-.2.861-.331,1.306-1.163,4.214-3.39,3.238-9.886,10.119a12.729,12.729,0,0,1-12.951,3.8,1.622,1.622,0,0,1-1.163-1.709l.82-11.16.39-5.369s10.375,3.01,15.655-.813a6.3,6.3,0,0,0,.512-.4,1.641,1.641,0,0,0,.116-.12,4.125,4.125,0,0,1,4.922-.359,4.454,4.454,0,0,1,1.917,4.706Z" transform="translate(14966.484 2543.537)" fill="#67647e"/>
    <path id="Path_1732" data-name="Path 1732" d="M440.752,826.857l.419,5.8c-5.955,6.158-13.044-3.01-15.12-6.019C431.511,829.553,440.752,826.857,440.752,826.857Z" transform="translate(14967.263 2539.033)" opacity="0.1"/>
    <path id="Path_1733" data-name="Path 1733" d="M500.544,828.512l.779-.536c-5.437,8.56-13.515,4.611-16.033,3.076l.39-5.369s10.375,3.01,15.655-.813C500.922,826.965,500.544,828.512,500.544,828.512Z" transform="translate(14942.474 2539.738)" opacity="0.1"/>
    <path id="Path_1734" data-name="Path 1734" d="M484.8,530.8c-4.176,10.793-8.345,46.952-8.869,51.165s-.39,21.321-.39,21.321L474.5,645.36c-.134,5.267-3.914,18.492-3.914,18.492s-1.3,11.064-.651,14.706-1.692,13.243-1.692,13.243l.779-.542c-6.519,10.233-16.818,2.564-16.818,2.564s-2.477-12.412.134-15.518-.913-12.683-.913-12.683,1.3-49.793,1.692-52.086-1.564-9.312-3.39-15.115,1.047-28.743,1.7-32.926-.262-23.211-.913-27.124.779-20.243.779-20.243c-2.605-8.1-4.693-.807-4.693-.807L444.506,538.5l-2.216,43.454s.262,13.243-1.692,17-3.652,13.49-3.652,13.49l.913,49.125s-.128,10.233.523,14.164-1.436,14.037-1.436,14.037c-7.3,17.8-19.023-1.5-19.023-1.5s.523-2.968,1.564-3.371-.39-7.693-1.163-8.909.128-9.986.128-9.986-.913-7.958-2.326-17.541-1.041-46.554-.128-48.848,1.692-12.954,1.692-12.954-1.041-6.074.262-10.4-3.129-22.531-3.129-24.559-1.692-14.573-2.605-15.921a8.193,8.193,0,0,1-.913-3.78s-.128-2.7-2.326-10.793c-1.617-5.911-.663-17.565-.029-23.434.227-2.173.425-3.557.425-3.557s74.77-12.55,77.753-9.715c.7.668,1.163,2.962,1.436,6.23C489.454,501.435,487.988,522.563,484.8,530.8Z" transform="translate(14974.779 2675.385)" fill="#444053"/>
    <path id="Path_1735" data-name="Path 1735" d="M491.34,662.347c.349,0,8.607.722,11.631.09S491.34,662.347,491.34,662.347Z" transform="translate(14939.942 2604.517)" opacity="0.1"/>
    <path id="Path_1736" data-name="Path 1736" d="M492.39,670.859s11.4,2.071,11.986.993S492.39,670.859,492.39,670.859Z" transform="translate(14939.503 2601.044)" opacity="0.1"/>
    <path id="Path_1737" data-name="Path 1737" d="M432.46,667.27s5.909.271,9.125,1.806S432.46,667.27,432.46,667.27Z" transform="translate(14964.58 2602.472)" opacity="0.1"/>
    <path id="Path_1738" data-name="Path 1738" d="M395.54,415.781s.954,18.8.436,22.127c0,0,2.082,15.205,3.821,19.07a55.312,55.312,0,0,0,5.478,8.728l5.129-37.32L409.183,415.6Z" transform="translate(14980.029 2702.651)" fill="#efb7b9"/>
    <ellipse id="Ellipse_136" data-name="Ellipse 136" cx="20.075" cy="20.779" rx="20.075" ry="20.779" transform="translate(15409.381 2991.229)" fill="#efb7b9"/>
    <path id="Path_1739" data-name="Path 1739" d="M460.825,254.753s-6.258,12.689-12.515,18.624S485.855,286.06,486.9,286.06s-7.822-26.985-6.258-30.242S460.825,254.753,460.825,254.753Z" transform="translate(14958.204 2766.964)" fill="#efb7b9"/>
    <path id="Path_1740" data-name="Path 1740" d="M489.133,490.744a12.927,12.927,0,0,1-3.222,1.866c-7.99,3.238-16.685,7.735-22.593,5.941s-18.424,0-18.424,0-25.21-2.161-30.241-.9a9.534,9.534,0,0,1-5.234.138c.227-2.173.425-3.557.425-3.557s74.857-12.551,77.841-9.715C488.395,485.182,488.848,487.476,489.133,490.744Z" transform="translate(14974.222 2675.385)" opacity="0.1"/>
    <path id="Path_1741" data-name="Path 1741" d="M487.735,397.408s-.692,9-8.694,12.237-16.685,7.735-22.593,5.941-18.424,0-18.424,0-25.21-2.161-30.241-.9-7.653-.355-6.089-2.7,1.4-10.077,1.4-13.315-1.745-16.373-.18-18.714,2.954-11.335,6.083-12.779a3.49,3.49,0,0,0,1.954-2.281,6.747,6.747,0,0,0-.041-3.293s-.529-.451-1.256-1.12c-1.844-1.7-4.961-4.864-3.96-5.9,1.39-1.445,0-10.8,0-10.8s-3.3-7.193-2.082-9.89S393,316.982,393,316.982s0-24.463,14.254-25.546c0,0,10.084.361,11.3-4.316s9.212-7.38,9.212-7.38l18.255,4.141s16.161,3.612,19.121,1.439,5.234,2.877,5.234,2.877,10.078.542,11.119,2.7-3.3,23.2-3.3,23.2-7.3-.716-6.781,7.38-2.815,18.353-2.815,18.353-.523,5.935-.174,7.193c.326,1.162-.686,5.688-.849,6.387v.09s-.727,3.01.215,4.081a1.17,1.17,0,0,0,.3.241c1.4.716,3.489,7.735,3.489,7.735a7.284,7.284,0,0,1,1.564,4.858c-.169,2.883.872,9.715,5.391,13.676S487.735,397.408,487.735,397.408Z" transform="translate(14981.093 2756.73)" fill="#7d53de"/>
    <path id="Path_1742" data-name="Path 1742" d="M407.711,379.422v.764l-.314,8.427s-10.695.9-16.516-.6-3.373-8.186-3.14-9.571a.23.23,0,0,0,0-.054c.169-1.264,1.745-11.786,1.745-13.5s0-8.728-.262-11.967,1.279-12.262,1.279-12.262l1.128-1.433,12.247,4.858Z" transform="translate(14983.589 2733.05)" fill="#7d53de"/>
    <path id="Path_1743" data-name="Path 1743" d="M407.661,406.146l-.314,8.427s-10.695.9-16.516-.6-3.373-8.186-3.14-9.571Z" transform="translate(14983.61 2707.109)" opacity="0.1"/>
    <path id="Path_1744" data-name="Path 1744" d="M422.927,413.625a6.747,6.747,0,0,0-.041-3.293s-.529-.451-1.256-1.12c9.206-1.33,45.663-6.507,57.94-7.073v.09s-.727,3.01.215,4.081Z" transform="translate(14969.112 2708.008)" opacity="0.1"/>
    <path id="Path_1745" data-name="Path 1745" d="M519.18,432s2.262,13.243-6.17,17.9C513,449.926,517.79,443.359,519.18,432Z" transform="translate(14930.874 2696.123)" opacity="0.1"/>
    <path id="Path_1746" data-name="Path 1746" d="M428.72,461.131s20.354-3.612,24.338-.807S428.72,461.131,428.72,461.131Z" transform="translate(14966.146 2685.272)" opacity="0.1"/>
    <path id="Path_1747" data-name="Path 1747" d="M510.328,326.22s-3.129,13.315-.785,16.373S510.328,326.22,510.328,326.22Z" transform="translate(14932.689 2738.229)" opacity="0.1"/>
    <path id="Path_1748" data-name="Path 1748" d="M410.115,308.14s2.867,4.948,1.128,10.077S410.115,308.14,410.115,308.14Z" transform="translate(14973.975 2745.426)" opacity="0.1"/>
    <path id="Path_1749" data-name="Path 1749" d="M400,380.18s3.652,2.245,2.437,5.755S400,380.18,400,380.18Z" transform="translate(14978.163 2716.75)" opacity="0.1"/>
    <path id="Path_1750" data-name="Path 1750" d="M399.43,363.14s3.385,1.89,3.821,4.677S399.43,363.14,399.43,363.14Z" transform="translate(14978.401 2723.533)" opacity="0.1"/>
    <path id="Path_1751" data-name="Path 1751" d="M485.81,539.918s21.3,2.251,25.553-2.968C511.363,536.98,492.155,540.911,485.81,539.918Z" transform="translate(14942.256 2654.346)" opacity="0.1"/>
    <path id="Path_1752" data-name="Path 1752" d="M422.59,539.79s22.861,5.58,27.379,1.168C449.969,540.958,430.325,542.487,422.59,539.79Z" transform="translate(14968.711 2653.216)" opacity="0.1"/>
    <path id="Path_1753" data-name="Path 1753" d="M488.65,554s9.561,0,13.992.271S488.65,554,488.65,554Z" transform="translate(14941.067 2647.56)" opacity="0.1"/>
    <path id="Path_1754" data-name="Path 1754" d="M425.28,561s4.693,5.49,10,4.5S425.28,561,425.28,561Z" transform="translate(14967.585 2644.773)" opacity="0.1"/>
    <path id="Path_1755" data-name="Path 1755" d="M425.732,183.277c-1.471,2.366-1.524,5.1-1.907,7.729a32.638,32.638,0,0,1-8.339,17.083c-4.17,4.587-9.886,8.746-10.968,14.35-1.024,5.321,2.448,10.444,4.269,15.651,4.8,13.658-1.9,27.984-3.856,42.082-.541,3.895.11,8.873,4.745,10.167,1.448.409,3.105.355,4.408,1.005,1.745.867,2.28,2.667,2.6,4.286a67.745,67.745,0,0,1,1.2,17.625c-.209,3.311-.442,7.121,2.582,9.4a14.978,14.978,0,0,0,5.007,2.071c4.763,1.33,10.922,2.408,14.132-.716,1.349-1.306,1.855-3.148,3.536-4.184,2.518-1.547,6.089-.5,9.258-.337a16.688,16.688,0,0,0,15.051-8.373c2.565-4.761,2.326-10.233,1.4-15.368s-2.594-10.233-2.71-15.446a9.228,9.228,0,0,1,1.117-5.243c1.937-3.1,6.444-4.509,9.526-6.946,5.775-4.575,5.757-12.069,3.658-18.341S474.565,237.482,474.1,231a7.356,7.356,0,0,1,.855-4.533,18.043,18.043,0,0,1,3.489-3.395c8.427-7.368,7.432-19.467.465-27.75C471.2,186.142,436.258,166.368,425.732,183.277Z" transform="translate(14976.351 2797.761)" fill="#2f2e41"/>
    <g id="Group_339" data-name="Group 339" transform="translate(15380.421 3002.31)" opacity="0.1">
      <path id="Path_1756" data-name="Path 1756" d="M409.667,272.228a35.417,35.417,0,0,0-1.332-16.222c-.919-2.612-2.251-5.207-3.222-7.825a11.553,11.553,0,0,0-1.047,3.01c-1.023,5.321,2.448,10.444,4.269,15.651A29.27,29.27,0,0,1,409.667,272.228Z" transform="translate(-403.882 -233.017)"/>
      <path id="Path_1757" data-name="Path 1757" d="M417.733,368.6a68,68,0,0,0-1.192-17.625c-.326-1.619-.861-3.413-2.605-4.28-1.3-.65-2.96-.6-4.408-1.005a6.061,6.061,0,0,1-4.071-3.479c-.268,1.372-.5,2.739-.692,4.111-.541,3.895.111,8.873,4.745,10.167,1.448.4,3.105.349,4.408,1,1.745.867,2.28,2.667,2.605,4.286a68.91,68.91,0,0,1,1.117,8.138C417.681,369.466,417.7,369.033,417.733,368.6Z" transform="translate(-404.184 -270.446)"/>
      <path id="Path_1758" data-name="Path 1758" d="M476.672,379.853a16.669,16.669,0,0,1-15.056,8.373c-3.169-.169-6.74-1.2-9.253.337-1.681,1.029-2.192,2.877-3.542,4.184-3.21,3.1-9.369,2.047-14.132.716a15.155,15.155,0,0,1-5.007-2.071,6.537,6.537,0,0,1-2.472-4.153c.035,1.848,0,3.7-.11,5.55-.209,3.311-.442,7.121,2.582,9.4a15.146,15.146,0,0,0,5.007,2.065c4.763,1.33,10.922,2.408,14.132-.716,1.349-1.306,1.861-3.148,3.542-4.214,2.512-1.547,6.083-.5,9.253-.337a16.7,16.7,0,0,0,15.056-8.373c2.466-4.6,2.355-9.8,1.495-14.766A16.52,16.52,0,0,1,476.672,379.853Z" transform="translate(-413.551 -283.837)"/>
      <path id="Path_1759" data-name="Path 1759" d="M528.188,230.99a16.66,16.66,0,0,0-3.489,3.395,7.356,7.356,0,0,0-.855,4.533,24.844,24.844,0,0,0,1.2,5.779,23.5,23.5,0,0,1,3.169-2.913c5.7-4.978,7.083-12.123,5.234-18.793A17.213,17.213,0,0,1,528.188,230.99Z" transform="translate(-454.053 -222.99)"/>
      <path id="Path_1760" data-name="Path 1760" d="M520.788,307.161c-3.076,2.438-7.589,3.852-9.52,6.952a9.2,9.2,0,0,0-1.122,5.237,37.368,37.368,0,0,0,.744,6.26,5.851,5.851,0,0,1,.378-.7c1.931-3.1,6.444-4.509,9.52-6.946,5.275-4.177,5.717-10.787,4.158-16.68a12.481,12.481,0,0,1-4.158,5.881Z" transform="translate(-448.345 -254.154)"/>
    </g>
    <path id="Path_1761" data-name="Path 1761" d="M553.181,285.262s15.039-.807,16.342-7.374-4.071-13.243-5.385-13.947-15.492-11.876-15.492-11.876L525.79,236.956s-10.951-32.5-13.376-20.063,7.043,28.966,7.043,28.966,13.12,8.728,14.6,11.335,10.52,9.444,10.52,9.444Z" transform="translate(14931.29 2782.876)" fill="#efb7b9"/>
    <path id="Path_1762" data-name="Path 1762" d="M570.882,308.106c-3.559,9.36-8.171,13.05-8.171,13.05h-2.565L537.6,321.4l-2.6-7.35,3.652-15.927,2.256.1a12.718,12.718,0,0,0,4.344,1.439c1.646,0,4.873-.09,5.816.355a.694.694,0,0,0,.424.066c.855-.09,1.745-1.415,1.745-1.415S574.447,298.752,570.882,308.106Z" transform="translate(14921.673 2749.414)" fill="#7d53de"/>
    <path id="Path_1763" data-name="Path 1763" d="M582.728,308.449c-3.559,9.36-8.171,13.05-8.171,13.05h-2.565c1.338-3.708,4.158-11.317,5.234-13.074,1.053-1.661-8.392-5.8-13.917-8.03.855-.09,1.745-1.415,1.745-1.415S586.293,299.094,582.728,308.449Z" transform="translate(14909.826 2749.072)" opacity="0.1"/>
    <ellipse id="Ellipse_137" data-name="Ellipse 137" cx="25.693" cy="5.201" rx="25.693" ry="5.201" transform="translate(15231.123 3342.119)" fill="#6c63ff" opacity="0.1"/>
    <path id="Path_1766" data-name="Path 1766" d="M245.841,567.516c0,2-.215,3.612-.483,3.612s-.488-1.625-.488-3.612.273-1.059.541-1.059S245.841,565.488,245.841,567.516Z" transform="translate(15043.077 2642.693)" fill="#ffd037"/>
    <path id="Path_1767" data-name="Path 1767" d="M248.773,571.436c-1.7.957-3.181,1.541-3.309,1.294s1.163-1.2,2.844-2.179,1.029-.259,1.163,0S250.471,570.473,248.773,571.436Z" transform="translate(15042.832 2641.169)" fill="#ffd037"/>
    <ellipse id="Ellipse_142" data-name="Ellipse 142" cx="18.319" cy="18.961" rx="18.319" ry="18.961" transform="translate(15299.354 2924.946)" fill="#6c63ff" opacity="0.1"/>
    <ellipse id="Ellipse_143" data-name="Ellipse 143" cx="11.34" cy="11.738" rx="11.34" ry="11.738" transform="translate(15248.951 2944.023)" fill="#6c63ff" opacity="0.1"/>
    <ellipse id="Ellipse_144" data-name="Ellipse 144" cx="6.979" cy="7.223" rx="6.979" ry="7.223" transform="translate(15224 2910.723)" fill="#6c63ff" opacity="0.1"/>
  </g>
</svg>
