<svg xmlns="http://www.w3.org/2000/svg" width="1178.985" height="832.652" viewBox="0 0 1178.985 832.652">
  <g id="Group_372" data-name="Group 372" transform="translate(-1076.673 -80.418)">
    <g id="Group_349" data-name="Group 349" transform="translate(-13512 -2075.582)">
      <path id="Path_1901" data-name="Path 1901" d="M843.388,453.509l7.162-4.176c.683-.4,1.355-.822,2.038-1.228-31.4-5.071-54.865-29.872-56.5-59.719s18.99-56.775,49.67-64.842l-.353,26.347,15.428-28.654h.194c37.6-1.649,69.5,25.608,71.255,60.876.068,1.218,0,2.424,0,3.631,5.363-5.746,10.248-11.908,13.47-18.658,6.524-13.66,6.65-29.146,6.137-47.953-1.025-37.284-2.744-74.845-4.976-112.289-33.281-3.476-58.938-29.117-60.529-60.491-.091-1.954-.057-3.888,0-5.8a8.562,8.562,0,0,1,.08-1.431c.137-1.858.319-3.7.626-5.511a4.587,4.587,0,0,1,.171-.876c.273-1.538.615-3.054,1-4.56.148-.555.3-1.068.455-1.677.478-1.623,1-3.2,1.617-4.817.205-.523.444-1.068.661-1.559.478-1.164,1-2.318,1.56-3.45.3-.6.581-1.2.9-1.784.08-.15.137-.31.228-.459h0c14.84-27.5,48.5-41.138,80.022-32.414l-.456,34.283L988.5,87.976c25.76,13.836,38.935,41.776,32.519,68.961h.068c-.1.459-.25.886-.364,1.346-.216.844-.444,1.677-.695,2.51-.319,1.068-.683,2.136-1.059,3.2-.285.78-.558,1.57-.877,2.35-.467,1.132-.991,2.232-1.514,3.332-.307.641-.581,1.3-.911,1.933q-1.3,2.488-2.824,4.838c-.353.555-.752,1.068-1.139,1.613-.729,1.068-1.457,2.136-2.277,3.129-.49.63-1.013,1.228-1.526,1.848-.752.886-1.514,1.762-2.277,2.606-.558.609-1.139,1.185-1.719,1.773-.831.822-1.7,1.623-2.585,2.414-.581.523-1.139,1.068-1.788,1.559-1,.833-2.049,1.634-3.108,2.414-.535.384-1.059.8-1.605,1.185-1.617,1.068-3.279,2.136-5,3.151-.319.192-.672.342-.991.523-1.446.79-2.9,1.538-4.406,2.232-.649.3-1.309.555-1.97.833-1.23.523-2.471,1.068-3.746,1.474-.74.267-1.492.513-2.277.758-1.252.4-2.528.758-3.814,1.068-.751.192-1.514.4-2.277.566-1.389.31-2.812.566-4.247.8h-.273q1.4,23.7,2.5,47.408c8.2-15.824,23-27.774,40.9-33.03a72.112,72.112,0,0,1,53.681,5.262l-12.047,30.972,24.787-22.321a62.167,62.167,0,0,1,22.021,44.14,58.675,58.675,0,0,1-1.731,17.611c-6.375,25.516-28.711,44.8-56.35,48.637s-54.976-8.533-68.966-31.218c0,1.6.125,3.2.159,4.817.455,16.6,1.025,37.252-7.8,55.7-5.978,12.5-15.588,22.642-25.05,31.741-6.183,5.927-12.593,11.652-19.163,17.195a67.372,67.372,0,0,1-24.617,19.224c-10.794,7.807-21.975,15.144-33.532,21.915l-7.219,4.208c-6.49,3.77-13.14,7.647-19.652,11.673,1.139-.107,2.277-.224,3.416-.278,29.65-1.3,56.789,15.548,67.11,41.652L861.7,554.2l46.843-10.189c-.03,21.973-12.082,42.394-31.918,54.082a72.118,72.118,0,0,1-65.8,3.494q1.571,1.858,3.165,3.7,3.142,3.663,6.205,7.284c27.714,32.916,35.422,64.176,21.7,88L825.2,692.11c13.356-23.186-6.729-52.877-19.892-68.512q-3.006-3.578-6.1-7.156c-17.705-20.634-37.768-44.023-37.278-72.709C762.671,500.437,807.43,474.42,843.388,453.509Z" transform="translate(14542.276 2076.603)" fill="#f2f2f2"/>
      <ellipse id="Ellipse_161" data-name="Ellipse 161" cx="563.82" cy="35.244" rx="563.82" ry="35.244" transform="translate(14640.02 2877.093)" fill="#f2f2f2"/>
      <path id="Path_1902" data-name="Path 1902" d="M684.08,714.752l-202.89-2.435.592-4.881L491.6,626.92H669.779l13.105,80.516,1,6.1Z" transform="translate(14538.693 2198.653)" fill="#2f2e41"/>
      <path id="Path_1903" data-name="Path 1903" d="M683.886,708.408H582.629L481.19,707.191l.592-4.881h201.1Z" transform="translate(14538.693 2203.779)" opacity="0.1"/>
      <rect id="Rectangle_541" data-name="Rectangle 541" width="269.226" height="6.098" transform="translate(14986.067 2907.307)" fill="#3f3d56"/>
      <path id="Path_1904" data-name="Path 1904" d="M1040.2,254.546c.044-8.771-7.5-15.915-16.851-15.956H271.5c-9.351.041-16.9,7.185-16.852,15.956V682.022H1040.2Z" transform="translate(14471.96 2087.427)" fill="#3f3d56"/>
      <path id="Path_1905" data-name="Path 1905" d="M254.65,649.8v50.068c0,8.73,7.545,15.806,16.852,15.806h751.851c9.307,0,16.851-7.077,16.851-15.806V649.8Z" transform="translate(14471.961 2115.388)" fill="#3f3d56"/>
      <rect id="Rectangle_542" data-name="Rectangle 542" width="724.422" height="384.276" transform="translate(14759.118 2352.856)" fill="#2f2e41"/>
      <path id="Path_1906" data-name="Path 1906" d="M605.133,695.785a17.981,17.981,0,0,0,13.811-6.291h0a16.294,16.294,0,0,0,1.366-1.89l-9.633-1.484,10.418.075a15.615,15.615,0,0,0,.342-13.051l-13.982,6.8,12.889-8.886a17.861,17.861,0,0,0-16.038-8.167,17.6,17.6,0,0,0-15.107,9.6,15.64,15.64,0,0,0,2.144,17h0a17.98,17.98,0,0,0,13.789,6.291Z" transform="translate(14518.114 2116.277)" fill="#7d53de"/>
      <path id="Path_1907" data-name="Path 1907" d="M587.42,632.06,668.364,708.3,655.942,632.06Z" transform="translate(14553.419 2199.002)" opacity="0.1"/>
      <path id="Path_1908" data-name="Path 1908" d="M818.606,762.51l21.8-11.962a50.426,50.426,0,0,0-11.147-12.506l-41.115,11.994,32.211-17.771a55.4,55.4,0,0,0-51.862.821c-15.919,8.847-25.68,24.917-25.677,42.273,0,27.138,23.455,28.078,52.376,28.078s52.376-.94,52.376-28.078a46.446,46.446,0,0,0-4.486-19.929Z" transform="translate(14539.629 2120.585)" fill="#7d53de"/>
      <path id="Path_1909" data-name="Path 1909" d="M824.168,786.889a40.957,40.957,0,0,0-7.731-5.692c-3.951-2.467-8.05-4.977-12.718-5.821-4.088-.737-8.323-.117-12.525-.331a30.081,30.081,0,0,1-19.14-8.234c-2.983-2.884-5.317-6.408-8.9-8.64-3.86-2.371-8.756-2.884-13.322-2.3a37.857,37.857,0,0,0-3.951.769,46.2,46.2,0,0,0-3.1,16.661c0,27.138,23.456,28.078,52.376,28.078,14.039,0,26.792-.224,36.2-3.557l-1.571-2.755a38.343,38.343,0,0,0-5.613-8.181Z" transform="translate(14539.622 2122.586)" opacity="0.1"/>
      <rect id="Rectangle_543" data-name="Rectangle 543" width="24.082" height="6.857" transform="translate(14791.295 2501.105)" fill="#37f1be" opacity="0.3"/>
      <rect id="Rectangle_544" data-name="Rectangle 544" width="24.082" height="6.857" transform="translate(15433.873 2501.308)" fill="#37f1be" opacity="0.3"/>
      <rect id="Rectangle_545" data-name="Rectangle 545" width="24.082" height="6.857" transform="translate(14791.512 2549.303)" fill="#37f1be" opacity="0.3"/>
      <rect id="Rectangle_546" data-name="Rectangle 546" width="24.082" height="6.857" transform="translate(14791.728 2597.502)" fill="#37f1be" opacity="0.3"/>
      <rect id="Rectangle_547" data-name="Rectangle 547" width="24.082" height="6.857" transform="translate(14791.944 2645.69)" fill="#37f1be" opacity="0.3"/>
      <g id="Group_344" data-name="Group 344" transform="translate(14815.377 2504.405)" opacity="0.2">
        <rect id="Rectangle_548" data-name="Rectangle 548" width="6.832" height="0.267" transform="translate(0 0)" fill="#f2f2f2"/>
        <path id="Path_1910" data-name="Path 1910" d="M927.95,405.887H914.526v-.267H927.95Zm-26.86,0H887.666v-.267H901.09Zm-26.86,0H860.795v-.267H874.23Zm-26.86,0H833.935v-.267H847.37Zm-26.86,0H807.075v-.267H820.51Zm-26.871,0H780.215v-.267h13.424Zm-26.86,0H753.343v-.267h13.436Zm-26.86,0H726.483v-.267h13.436Zm-26.86,0H699.623v-.267h13.436Zm-26.871,0H672.764v-.267h13.424Zm-26.86,0H645.892v-.267h13.436Zm-26.86,0H619.032v-.267h13.436Zm-26.86,0H592.172v-.267h13.436Zm-26.871,0H565.312v-.267h13.424Zm-26.86,0H538.452v-.267h13.424Zm-26.86,0h-13.39v-.267h13.436Zm-26.86,0H484.721v-.267h13.436Zm-26.871,0H457.861v-.267h13.424Zm-26.86,0H431v-.267h13.447Zm-26.86,0H404.13v-.267h13.436Zm-26.86,0H377.27v-.267h13.436Zm-26.871,0H350.41v-.267h13.424Z" transform="translate(-330.143 -405.62)" fill="#f2f2f2"/>
        <rect id="Rectangle_549" data-name="Rectangle 549" width="6.832" height="0.267" transform="translate(611.243 0)" fill="#f2f2f2"/>
        <rect id="Rectangle_550" data-name="Rectangle 550" width="6.832" height="0.267" transform="translate(0 0)" fill="#f2f2f2"/>
        <path id="Path_1911" data-name="Path 1911" d="M927.95,405.887H914.526v-.267H927.95Zm-26.86,0H887.666v-.267H901.09Zm-26.86,0H860.795v-.267H874.23Zm-26.86,0H833.935v-.267H847.37Zm-26.86,0H807.075v-.267H820.51Zm-26.871,0H780.215v-.267h13.424Zm-26.86,0H753.343v-.267h13.436Zm-26.86,0H726.483v-.267h13.436Zm-26.86,0H699.623v-.267h13.436Zm-26.871,0H672.764v-.267h13.424Zm-26.86,0H645.892v-.267h13.436Zm-26.86,0H619.032v-.267h13.436Zm-26.86,0H592.172v-.267h13.436Zm-26.871,0H565.312v-.267h13.424Zm-26.86,0H538.452v-.267h13.424Zm-26.86,0h-13.39v-.267h13.436Zm-26.86,0H484.721v-.267h13.436Zm-26.871,0H457.861v-.267h13.424Zm-26.86,0H431v-.267h13.447Zm-26.86,0H404.13v-.267h13.436Zm-26.86,0H377.27v-.267h13.436Zm-26.871,0H350.41v-.267h13.424Z" transform="translate(-330.143 -405.62)" fill="#f2f2f2"/>
        <rect id="Rectangle_551" data-name="Rectangle 551" width="6.832" height="0.267" transform="translate(611.243 0)" fill="#f2f2f2"/>
      </g>
      <rect id="Rectangle_552" data-name="Rectangle 552" width="24.082" height="6.857" transform="translate(14791.295 2453.045)" fill="#37f1be" opacity="0.3"/>
      <rect id="Rectangle_553" data-name="Rectangle 553" width="24.082" height="6.857" transform="translate(15433.873 2453.248)" fill="#37f1be" opacity="0.3"/>
      <g id="Group_345" data-name="Group 345" transform="translate(14815.377 2456.345)" opacity="0.2">
        <rect id="Rectangle_554" data-name="Rectangle 554" width="6.832" height="0.267" transform="translate(0 0)" fill="#f2f2f2"/>
        <path id="Path_1912" data-name="Path 1912" d="M927.95,360.887H914.526v-.267H927.95Zm-26.86,0H887.666v-.267H901.09Zm-26.86,0H860.795v-.267H874.23Zm-26.86,0H833.935v-.267H847.37Zm-26.86,0H807.075v-.267H820.51Zm-26.871,0H780.215v-.267h13.424Zm-26.86,0H753.343v-.267h13.436Zm-26.86,0H726.483v-.267h13.436Zm-26.86,0H699.623v-.267h13.436Zm-26.871,0H672.764v-.267h13.424Zm-26.86,0H645.892v-.267h13.436Zm-26.86,0H619.032v-.267h13.436Zm-26.86,0H592.172v-.267h13.436Zm-26.871,0H565.312v-.267h13.424Zm-26.86,0H538.452v-.267h13.424Zm-26.86,0h-13.39v-.267h13.436Zm-26.86,0H484.721v-.267h13.436Zm-26.871,0H457.861v-.267h13.424Zm-26.86,0H431v-.267h13.447Zm-26.86,0H404.13v-.267h13.436Zm-26.86,0H377.27v-.267h13.436Zm-26.871,0H350.41v-.267h13.424Z" transform="translate(-330.143 -360.62)" fill="#f2f2f2"/>
        <rect id="Rectangle_555" data-name="Rectangle 555" width="6.832" height="0.267" transform="translate(611.243 0)" fill="#f2f2f2"/>
      </g>
      <rect id="Rectangle_556" data-name="Rectangle 556" width="24.082" height="6.857" transform="translate(15433.873 2549.303)" fill="#37f1be" opacity="0.3"/>
      <g id="Group_346" data-name="Group 346" transform="translate(14815.377 2552.39)" opacity="0.2">
        <rect id="Rectangle_557" data-name="Rectangle 557" width="6.832" height="0.267" transform="translate(0 0.011)" fill="#f2f2f2"/>
        <path id="Path_1913" data-name="Path 1913" d="M927.95,450.817H914.526v-.267H927.95Zm-26.86,0H887.666v-.267H901.09Zm-26.86,0H860.795v-.267H874.23Zm-26.86,0H833.935v-.267H847.37Zm-26.86,0H807.075v-.267H820.51Zm-26.871,0H780.215v-.267h13.424Zm-26.86,0H753.343v-.267h13.436Zm-26.86,0H726.483v-.267h13.436Zm-26.86,0H699.623v-.267h13.436Zm-26.871,0H672.764v-.267h13.424Zm-26.86,0H645.892v-.267h13.436Zm-26.86,0H619.032v-.267h13.436Zm-26.86,0H592.172v-.267h13.436Zm-26.871,0H565.312v-.267h13.424Zm-26.86,0H538.452v-.267h13.424Zm-26.86,0h-13.39v-.267h13.436Zm-26.86,0H484.721v-.267h13.436Zm-26.871,0H457.861v-.267h13.424Zm-26.86,0H431v-.267h13.447Zm-26.86,0H404.13v-.267h13.436Zm-26.86,0H377.27v-.267h13.436Zm-26.871,0H350.41v-.267h13.424Z" transform="translate(-330.143 -450.55)" fill="#f2f2f2"/>
        <rect id="Rectangle_558" data-name="Rectangle 558" width="6.832" height="0.267" transform="translate(611.243 0.011)" fill="#f2f2f2"/>
        <rect id="Rectangle_559" data-name="Rectangle 559" width="6.832" height="0.267" transform="translate(0 0.011)" fill="#f2f2f2"/>
        <path id="Path_1914" data-name="Path 1914" d="M927.95,450.817H914.526v-.267H927.95Zm-26.86,0H887.666v-.267H901.09Zm-26.86,0H860.795v-.267H874.23Zm-26.86,0H833.935v-.267H847.37Zm-26.86,0H807.075v-.267H820.51Zm-26.871,0H780.215v-.267h13.424Zm-26.86,0H753.343v-.267h13.436Zm-26.86,0H726.483v-.267h13.436Zm-26.86,0H699.623v-.267h13.436Zm-26.871,0H672.764v-.267h13.424Zm-26.86,0H645.892v-.267h13.436Zm-26.86,0H619.032v-.267h13.436Zm-26.86,0H592.172v-.267h13.436Zm-26.871,0H565.312v-.267h13.424Zm-26.86,0H538.452v-.267h13.424Zm-26.86,0h-13.39v-.267h13.436Zm-26.86,0H484.721v-.267h13.436Zm-26.871,0H457.861v-.267h13.424Zm-26.86,0H431v-.267h13.447Zm-26.86,0H404.13v-.267h13.436Zm-26.86,0H377.27v-.267h13.436Zm-26.871,0H350.41v-.267h13.424Z" transform="translate(-330.143 -450.55)" fill="#f2f2f2"/>
        <rect id="Rectangle_560" data-name="Rectangle 560" width="6.832" height="0.267" transform="translate(611.243 0.011)" fill="#f2f2f2"/>
      </g>
      <rect id="Rectangle_561" data-name="Rectangle 561" width="24.082" height="6.857" transform="translate(15433.873 2597.299)" fill="#37f1be" opacity="0.3"/>
      <g id="Group_347" data-name="Group 347" transform="translate(14815.377 2600.386)" opacity="0.2">
        <rect id="Rectangle_562" data-name="Rectangle 562" width="6.832" height="0.267" transform="translate(0 0)" fill="#f2f2f2"/>
        <path id="Path_1915" data-name="Path 1915" d="M927.95,495.757H914.526v-.267H927.95Zm-26.86,0H887.666v-.267H901.09Zm-26.86,0H860.795v-.267H874.23Zm-26.86,0H833.935v-.267H847.37Zm-26.86,0H807.075v-.267H820.51Zm-26.871,0H780.215v-.267h13.424Zm-26.86,0H753.343v-.267h13.436Zm-26.86,0H726.483v-.267h13.436Zm-26.86,0H699.623v-.267h13.436Zm-26.871,0H672.764v-.267h13.424Zm-26.86,0H645.892v-.267h13.436Zm-26.86,0H619.032v-.267h13.436Zm-26.86,0H592.172v-.267h13.436Zm-26.871,0H565.312v-.267h13.424Zm-26.86,0H538.452v-.267h13.424Zm-26.86,0h-13.39v-.267h13.436Zm-26.86,0H484.721v-.267h13.436Zm-26.871,0H457.861v-.267h13.424Zm-26.86,0H431v-.267h13.447Zm-26.86,0H404.13v-.267h13.436Zm-26.86,0H377.27v-.267h13.436Zm-26.871,0H350.41v-.267h13.424Z" transform="translate(-330.143 -495.49)" fill="#f2f2f2"/>
        <rect id="Rectangle_563" data-name="Rectangle 563" width="6.832" height="0.267" transform="translate(611.243 0)" fill="#f2f2f2"/>
        <rect id="Rectangle_564" data-name="Rectangle 564" width="6.832" height="0.267" transform="translate(0 0)" fill="#f2f2f2"/>
        <path id="Path_1916" data-name="Path 1916" d="M927.95,495.757H914.526v-.267H927.95Zm-26.86,0H887.666v-.267H901.09Zm-26.86,0H860.795v-.267H874.23Zm-26.86,0H833.935v-.267H847.37Zm-26.86,0H807.075v-.267H820.51Zm-26.871,0H780.215v-.267h13.424Zm-26.86,0H753.343v-.267h13.436Zm-26.86,0H726.483v-.267h13.436Zm-26.86,0H699.623v-.267h13.436Zm-26.871,0H672.764v-.267h13.424Zm-26.86,0H645.892v-.267h13.436Zm-26.86,0H619.032v-.267h13.436Zm-26.86,0H592.172v-.267h13.436Zm-26.871,0H565.312v-.267h13.424Zm-26.86,0H538.452v-.267h13.424Zm-26.86,0h-13.39v-.267h13.436Zm-26.86,0H484.721v-.267h13.436Zm-26.871,0H457.861v-.267h13.424Zm-26.86,0H431v-.267h13.447Zm-26.86,0H404.13v-.267h13.436Zm-26.86,0H377.27v-.267h13.436Zm-26.871,0H350.41v-.267h13.424Z" transform="translate(-330.143 -495.49)" fill="#f2f2f2"/>
        <rect id="Rectangle_565" data-name="Rectangle 565" width="6.832" height="0.267" transform="translate(611.243 0)" fill="#f2f2f2"/>
      </g>
      <rect id="Rectangle_566" data-name="Rectangle 566" width="24.082" height="6.857" transform="translate(15433.873 2645.284)" fill="#37f1be" opacity="0.3"/>
      <g id="Group_348" data-name="Group 348" transform="translate(14815.377 2648.381)" opacity="0.2">
        <rect id="Rectangle_567" data-name="Rectangle 567" width="6.832" height="0.267" transform="translate(0)" fill="#f2f2f2"/>
        <path id="Path_1917" data-name="Path 1917" d="M927.95,540.7H914.526v-.267H927.95Zm-26.86,0H887.666v-.267H901.09Zm-26.86,0H860.795v-.267H874.23Zm-26.86,0H833.935v-.267H847.37Zm-26.86,0H807.075v-.267H820.51Zm-26.871,0H780.215v-.267h13.424Zm-26.86,0H753.343v-.267h13.436Zm-26.86,0H726.483v-.267h13.436Zm-26.86,0H699.623v-.267h13.436Zm-26.871,0H672.764v-.267h13.424Zm-26.86,0H645.892v-.267h13.436Zm-26.86,0H619.032v-.267h13.436Zm-26.86,0H592.172v-.267h13.436Zm-26.871,0H565.312v-.267h13.424Zm-26.86,0H538.452v-.267h13.424Zm-26.86,0h-13.39v-.267h13.436Zm-26.86,0H484.721v-.267h13.436Zm-26.871,0H457.861v-.267h13.424Zm-26.86,0H431v-.267h13.447Zm-26.86,0H404.13v-.267h13.436Zm-26.86,0H377.27v-.267h13.436Zm-26.871,0H350.41v-.267h13.424Z" transform="translate(-330.143 -540.43)" fill="#f2f2f2"/>
        <rect id="Rectangle_568" data-name="Rectangle 568" width="6.832" height="0.267" transform="translate(611.243)" fill="#f2f2f2"/>
        <rect id="Rectangle_569" data-name="Rectangle 569" width="6.832" height="0.267" transform="translate(0)" fill="#f2f2f2"/>
        <path id="Path_1918" data-name="Path 1918" d="M927.95,540.7H914.526v-.267H927.95Zm-26.86,0H887.666v-.267H901.09Zm-26.86,0H860.795v-.267H874.23Zm-26.86,0H833.935v-.267H847.37Zm-26.86,0H807.075v-.267H820.51Zm-26.871,0H780.215v-.267h13.424Zm-26.86,0H753.343v-.267h13.436Zm-26.86,0H726.483v-.267h13.436Zm-26.86,0H699.623v-.267h13.436Zm-26.871,0H672.764v-.267h13.424Zm-26.86,0H645.892v-.267h13.436Zm-26.86,0H619.032v-.267h13.436Zm-26.86,0H592.172v-.267h13.436Zm-26.871,0H565.312v-.267h13.424Zm-26.86,0H538.452v-.267h13.424Zm-26.86,0h-13.39v-.267h13.436Zm-26.86,0H484.721v-.267h13.436Zm-26.871,0H457.861v-.267h13.424Zm-26.86,0H431v-.267h13.447Zm-26.86,0H404.13v-.267h13.436Zm-26.86,0H377.27v-.267h13.436Zm-26.871,0H350.41v-.267h13.424Z" transform="translate(-330.143 -540.43)" fill="#f2f2f2"/>
        <rect id="Rectangle_570" data-name="Rectangle 570" width="6.832" height="0.267" transform="translate(611.243)" fill="#f2f2f2"/>
      </g>
      <line id="Line_1" data-name="Line 1" y2="192.442" transform="translate(14893.885 2456.676)" fill="none" stroke="#f2f2f2" stroke-miterlimit="10" stroke-width="0.1"/>
      <line id="Line_2" data-name="Line 2" y2="192.442" transform="translate(14977.004 2456.676)" fill="none" stroke="#f2f2f2" stroke-miterlimit="10" stroke-width="0.1"/>
      <line id="Line_3" data-name="Line 3" y2="192.442" transform="translate(15060.123 2456.676)" fill="none" stroke="#f2f2f2" stroke-miterlimit="10" stroke-width="0.1"/>
      <line id="Line_4" data-name="Line 4" y2="192.442" transform="translate(15143.242 2456.676)" fill="none" stroke="#f2f2f2" stroke-miterlimit="10" stroke-width="0.1"/>
      <line id="Line_5" data-name="Line 5" y2="192.442" transform="translate(15226.361 2456.676)" fill="none" stroke="#f2f2f2" stroke-miterlimit="10" stroke-width="0.1"/>
      <line id="Line_6" data-name="Line 6" y2="192.442" transform="translate(15309.48 2456.676)" fill="none" stroke="#f2f2f2" stroke-miterlimit="10" stroke-width="0.1"/>
      <line id="Line_7" data-name="Line 7" y2="192.442" transform="translate(15392.599 2456.676)" fill="none" stroke="#f2f2f2" stroke-miterlimit="10" stroke-width="0.1"/>
      <path id="Path_1919" data-name="Path 1919" d="M926.632,348.819l-9.507,9.292a2.726,2.726,0,0,0-.478.652l-5.9,11.4a2.721,2.721,0,0,1-2.63,1.42l-1.89-.139a2.655,2.655,0,0,1-2.391-1.816l-1.822-5.917a2.756,2.756,0,0,0-5.146-.117l-3.063,8.416a2.691,2.691,0,0,1-2.562,1.719H879.55a2.664,2.664,0,0,1-2.664-2.136l-3.3-19.384a2.619,2.619,0,0,0-2.248-2.112,2.749,2.749,0,0,0-2.83,1.365L851.574,382.8a2.673,2.673,0,0,1-1.755,1.315,2.844,2.844,0,0,1-2.208-.386l-10.065-6.664a2.85,2.85,0,0,0-3.609.406l-3.814,4.133a2.414,2.414,0,0,0-.3.4l-10.179,16.522a2.73,2.73,0,0,1-2.607,1.25l-6.206-.577a2.886,2.886,0,0,0-1.275.171L804,401.45a2.766,2.766,0,0,1-3.416-1.335l-1.218-2.617a2.73,2.73,0,0,0-2.6-1.517l-6.354.278a2.721,2.721,0,0,0-2.015.993l-1.8,2.2a2.788,2.788,0,0,1-2.57.961,2.66,2.66,0,0,1-2.121-1.666l-2.277-6.034a2.631,2.631,0,0,0-1.763-1.584,2.843,2.843,0,0,0-2.4.4l-10.817,7.6L752.7,408.178a2.856,2.856,0,0,1-2.938.278l-9.28-4.518a2.879,2.879,0,0,0-1.617-.256l-18.8,2.467a2.652,2.652,0,0,0-2.277,1.944l-3.336,13.6a2.6,2.6,0,0,1-1.785,1.836,2.837,2.837,0,0,1-2.6-.48h0a2.841,2.841,0,0,0-2.294-.558,2.694,2.694,0,0,0-1.884,1.348l-2.562,4.817a2.723,2.723,0,0,1-1.97,1.367l-5.818.908a2.815,2.815,0,0,0-1.048.4l-9.166,5.724a2.8,2.8,0,0,1-1.492.427h-4.293a2.71,2.71,0,0,1-2.482-1.527l-1.139-2.553a2.635,2.635,0,0,0-1.525-1.352,2.863,2.863,0,0,0-2.1.081l-9.952,4.368a2.868,2.868,0,0,1-2.539-.117l-4.554-2.574a2.857,2.857,0,0,0-1.389-.363H643.811a2.827,2.827,0,0,0-1.492.427l-10.031,6.248a2.852,2.852,0,0,1-2.642.182l-4.554-2.019a2.823,2.823,0,0,0-3.177.63l-2.163,2.318a2.78,2.78,0,0,1-2.311.859,2.7,2.7,0,0,1-2.073-1.286l-.649-1.068a2.68,2.68,0,0,0-1.656-1.209,2.854,2.854,0,0,0-2.079.269l-7.891,4.389a2.854,2.854,0,0,1-2.687,0l-3.256-1.7a2.833,2.833,0,0,0-2.425-.1l-3.1,1.324a2.886,2.886,0,0,1-2.216,0,2.619,2.619,0,0,1-1.485-1.543l-2-5.6a2.664,2.664,0,0,0-2.573-1.762h-2.915a2.778,2.778,0,0,1-1.309-.32l-11.193-5.757a2.859,2.859,0,0,0-2.915.2l-8.209,5.767a2.8,2.8,0,0,1-1.617.5H544.865a2.8,2.8,0,0,0-1.492.427l-1.936,1.207a2.848,2.848,0,0,1-2.193.344,2.668,2.668,0,0,1-1.724-1.316l-.467-.865a2.709,2.709,0,0,0-2.414-1.41H529.46a2.765,2.765,0,0,0-2.129.983l-3.211,3.855a2.775,2.775,0,0,1-2.259.97,2.736,2.736,0,0,1-2.147-1.173l-.911-1.335a2.793,2.793,0,0,0-3.666-.812l-2.664,1.5a2.86,2.86,0,0,1-2.972-.117l-10.737-7.294a3.324,3.324,0,0,0-.615-.32l-8.392-3.022a2.76,2.76,0,0,0-3.416,1.41l-5.841,13.35a2.175,2.175,0,0,0-.171.587l-1.89,12.026a2.483,2.483,0,0,1-.706,1.356l-4,4.026a2.854,2.854,0,0,1-3.291.481l-6.934-3.61a2.858,2.858,0,0,0-2.282-.156,2.612,2.612,0,0,0-1.589,1.544l-4.395,12.058a2.289,2.289,0,0,0-.148.822v7.6a2.532,2.532,0,0,1-1.628,2.318l-7.048,2.926a2.856,2.856,0,0,1-2.448-.15l-5.306-2.926a2.849,2.849,0,0,0-1.753-.32l-9.3,1.25a2.747,2.747,0,0,1-2.71-1.239l-1.571-2.52a2.653,2.653,0,0,0-1.526-1.132l-4.224-1.239a2.806,2.806,0,0,0-2.812.716l-5.864,6.109a2.8,2.8,0,0,1-1.788.833l-8.654.683a2.675,2.675,0,0,0-1.139.32l-15.087,8.138a2.857,2.857,0,0,1-3.029-.224l-4.281-3.2a2.848,2.848,0,0,0-1.685-.555H357.028a2.745,2.745,0,0,1-2.106-.951l-4.088-4.785a2.816,2.816,0,0,0-4.11-.107l-4.919,5.126a2.445,2.445,0,0,0-.695,1.687v63.7a2.619,2.619,0,0,0,2.7,2.531H928.75a2.791,2.791,0,0,0,1.912-.745,2.453,2.453,0,0,0,.786-1.8l-.159-201.136a2.543,2.543,0,0,0-1.675-2.387A2.84,2.84,0,0,0,926.632,348.819Z" transform="translate(14483.945 2094.87)" fill="#7d53de" opacity="0.3"/>
      <path id="Path_1920" data-name="Path 1920" d="M926.105,426.033l-8.813,5.511a3.339,3.339,0,0,0-.808.716l-5.477,6.782a3.508,3.508,0,0,1-2.824,1.239l-1.788-.085a3.354,3.354,0,0,1-2.881-1.837l-1.139-2.275a3.333,3.333,0,0,0-2.928-1.846A3.367,3.367,0,0,0,896.4,435.9l-2.277,4.09a3.361,3.361,0,0,1-2.949,1.655h-11.3a3.28,3.28,0,0,1-3.234-2.371l-2.71-10.178a3.248,3.248,0,0,0-2.533-2.3,3.459,3.459,0,0,0-3.32,1.116L851.8,447.222a3.456,3.456,0,0,1-3.985.908L837.35,443.7a3.52,3.52,0,0,0-3.416.331l-3.746,2.6a3.028,3.028,0,0,0-.49.427l-9.883,10.263a3.444,3.444,0,0,1-2.687,1.068L810.672,458a3.833,3.833,0,0,0-1.047.085l-5.818,1.4a3.436,3.436,0,0,1-3.587-1.26l-.66-.919a3.41,3.41,0,0,0-2.847-1.356l-6.49.182a3.336,3.336,0,0,0-2.038.726l-1.594,1.25a3.5,3.5,0,0,1-2.757.68,3.332,3.332,0,0,1-2.31-1.566l-1.685-2.862a3.449,3.449,0,0,0-4.361-1.314l-10.919,4.923-12.081,5.853A3.513,3.513,0,0,1,749.9,464l-9.621-2.99a3.629,3.629,0,0,0-1.344-.149l-18.628,1.484a3.39,3.39,0,0,0-2.846,2.061l-2.7,7.07a3.235,3.235,0,0,1-1.955,1.866,3.535,3.535,0,0,1-2.782-.178l-.114-.053a3.46,3.46,0,0,0-4.224.812l-2.118,2.542a3.479,3.479,0,0,1-2.277,1.186l-5.83.587a3.6,3.6,0,0,0-.956.224l-9.234,3.706a3.685,3.685,0,0,1-1.309.246h-4.441a3.4,3.4,0,0,1-2.755-1.367l-.638-.876a3.453,3.453,0,0,0-3.712-1.228l-10.35,2.937a3.557,3.557,0,0,1-2.163-.075l-4.8-1.73a3.47,3.47,0,0,0-1.139-.214H643.649a3.381,3.381,0,0,0-1.3.256L632.1,484.2a3.506,3.506,0,0,1-2.277.117l-5.067-1.42a3.529,3.529,0,0,0-2.926.47l-2.22,1.527a3.494,3.494,0,0,1-4.475-.459l-.33-.352a3.485,3.485,0,0,0-3.689-.865l-8.255,2.958a3.532,3.532,0,0,1-2.277,0l-3.621-1.218a3.631,3.631,0,0,0-2.049-.053l-3.416.929a3.42,3.42,0,0,1-3.905-1.6l-1.275-2.4a3.377,3.377,0,0,0-2.983-1.73h-2.96a3.5,3.5,0,0,1-1.139-.171l-11.489-3.781a3.5,3.5,0,0,0-2.551.128l-8.392,3.781a3.6,3.6,0,0,1-1.446.31h-10.6a3.683,3.683,0,0,0-1.309.246l-2.163.876a3.49,3.49,0,0,1-3.94-.951h0a3.408,3.408,0,0,0-2.63-1.207h-5.352a3.488,3.488,0,0,0-2.118.7l-3.108,2.392a3.475,3.475,0,0,1-4.475-.214l-.706-.662a3.5,3.5,0,0,0-3.564-.716l-3.1,1.121a3.624,3.624,0,0,1-2.607-.085l-10.9-4.742a2.823,2.823,0,0,0-.6-.192l-8.551-1.976a3.416,3.416,0,0,0-3.6,1.346l-5.374,7.86a3.1,3.1,0,0,0-.444.983l-1.628,6.675a3.207,3.207,0,0,1-1.366,1.88l-3.552,2.286a3.488,3.488,0,0,1-2.995.363l-7.31-2.435a3.429,3.429,0,0,0-4.088,1.538l-3.848,6.75a3.046,3.046,0,0,0-.387,1.474v3.044a3.179,3.179,0,0,1-2.448,3.012l-6.4,1.666a3.484,3.484,0,0,1-2.061-.085l-5.579-1.976a3.478,3.478,0,0,0-1.48-.192l-9.621.822a3.421,3.421,0,0,1-2.767-1l-1.139-1.185a3.291,3.291,0,0,0-1.81-.961l-4.384-.833a3.6,3.6,0,0,0-2.6.523l-5.773,3.855a3.562,3.562,0,0,1-1.753.577l-8.847.438a3.687,3.687,0,0,0-.979.192l-15.36,5.34a3.452,3.452,0,0,1-2.664-.15l-4.441-2.136a3.516,3.516,0,0,0-1.514-.342h-16.51a3.476,3.476,0,0,1-2.095-.694l-4-3a3.513,3.513,0,0,0-4.019-.107l-4.281,2.862a3.085,3.085,0,0,0-1.4,2.552v30.021a3.238,3.238,0,0,0,3.336,3.129H928.109a3.238,3.238,0,0,0,3.336-3.129l-.159-117.234a3.1,3.1,0,0,0-1.739-2.789A3.525,3.525,0,0,0,926.105,426.033Z" transform="translate(14483.948 2100.137)" fill="#7d53de" opacity="0.3"/>
      <path id="Path_1921" data-name="Path 1921" d="M927.953,494.517,917.124,497.9a2.914,2.914,0,0,0-.592.267l-5.943,3.685a2.653,2.653,0,0,1-1.457.384l-3.7-.085a2.6,2.6,0,0,1-1.822-.78l-2.277-2.35a2.612,2.612,0,0,0-1.779-.782,2.638,2.638,0,0,0-1.841.643l-3.837,3.375a2.6,2.6,0,0,1-1.731.651h-13.3a2.537,2.537,0,0,1-2.277-1.324l-3.04-5.692a2.509,2.509,0,0,0-1.586-1.227,2.683,2.683,0,0,0-2.035.277l-18.821,11.182a2.705,2.705,0,0,1-1.913.31l-12.889-2.723a2.625,2.625,0,0,0-1.435.085l-4.7,1.634a1.659,1.659,0,0,0-.353.15l-10.4,5.4a2.759,2.759,0,0,1-1.309.3l-7.7-.235a2.414,2.414,0,0,0-.4,0l-7.4.886a2.714,2.714,0,0,1-1.822-.438l-1.5-1.068a2.619,2.619,0,0,0-1.537-.459l-8.118.107a2.553,2.553,0,0,0-.945.182l-3.644,1.442a2.681,2.681,0,0,1-2.687-.438l-2.983-2.478a2.649,2.649,0,0,0-2.277-.545l-12.456,2.82-12.809,3.108a2.654,2.654,0,0,1-1.047,0l-10.817-1.687a4.333,4.333,0,0,0-.524,0l-20.006.844a2.575,2.575,0,0,0-1.947.993l-3.017,3.9a2.618,2.618,0,0,1-2.733.908l-3.222-.833a2.719,2.719,0,0,0-2.038.3l-3.222,1.933a2.729,2.729,0,0,1-1.23.363l-6.832.352a2.426,2.426,0,0,0-.387,0l-9.86,1.976a3.028,3.028,0,0,1-.535.053h-5.784a2.629,2.629,0,0,1-1.492-.459l-1.5-1.068a2.619,2.619,0,0,0-1.867-.438l-12.308,1.73a2.861,2.861,0,0,1-.854,0l-5.784-1.068a2.426,2.426,0,0,0-.478,0h-11.1a2.915,2.915,0,0,0-.524,0l-11.261,2.243a2.606,2.606,0,0,1-.911,0l-6.706-.951a2.769,2.769,0,0,0-1.253.128l-4.3,1.474a2.64,2.64,0,0,1-2.129-.171l-2.038-1.068a2.6,2.6,0,0,0-1.719-.278l-10.248,1.826a2.684,2.684,0,0,1-.922,0l-4.93-.822a2.935,2.935,0,0,0-.808,0l-5.443.737a2.61,2.61,0,0,1-2.152-.662l-1.8-1.613a2.687,2.687,0,0,0-1.8-.694h-4.315a2.845,2.845,0,0,1-.433,0l-12.593-2.072a2.606,2.606,0,0,0-1.036,0l-9.519,2.136a2.716,2.716,0,0,1-.592.064H544.319a2.782,2.782,0,0,0-.524,0l-3.883.78a2.749,2.749,0,0,1-1.947-.214l-1.07-.651a2.676,2.676,0,0,0-1.366-.374h-6.934a2.662,2.662,0,0,0-.956.182l-4.85,1.858a2.643,2.643,0,0,1-2.1-.075l-2.573-1.218a2.714,2.714,0,0,0-1.617-.214l-5.078.918a2.668,2.668,0,0,1-1.047,0L498.6,520.672h-.262l-10.008-1.164a2.7,2.7,0,0,0-1.867.491l-5.693,4.144a2.359,2.359,0,0,0-.74.876l-1.275,2.659a2.51,2.51,0,0,1-1.48,1.26l-4.372,1.4a2.54,2.54,0,0,1-1.264.1l-9.724-1.623a2.664,2.664,0,0,0-2.175.609l-3.86,3.386a2.3,2.3,0,0,0-.8,1.741h0a2.427,2.427,0,0,1-2.187,2.35l-7.3.951a2.649,2.649,0,0,1-.82,0l-6.6-1.175a2.72,2.72,0,0,0-.592,0l-11.033.47a2.749,2.749,0,0,1-1.332-.288l-1.936-.993a2.527,2.527,0,0,0-.968-.288l-5.8-.545a2.757,2.757,0,0,0-1.139.128l-6.832,2.275a2.752,2.752,0,0,1-.786.139l-9.712.246a2.519,2.519,0,0,0-.4,0L381.2,540.665a2.835,2.835,0,0,1-1.082,0l-5.6-1.346a3.151,3.151,0,0,0-.638-.075h-17.66a2.555,2.555,0,0,1-.945-.171L349.741,537a2.673,2.673,0,0,0-1.8,0l-5.147,1.719a2.375,2.375,0,0,0-1.685,2.232v1.068a2.3,2.3,0,0,0,.736,1.683,2.614,2.614,0,0,0,1.791.7H928.886a2.615,2.615,0,0,0,1.791-.7,2.3,2.3,0,0,0,.736-1.683l-.148-45.144a2.329,2.329,0,0,0-1-1.989,2.676,2.676,0,0,0-2.312-.371Z" transform="translate(14483.945 2104.822)" fill="#65fefd" opacity="0.3"/>
      <ellipse id="Ellipse_162" data-name="Ellipse 162" cx="7.97" cy="7.476" rx="7.97" ry="7.476" transform="translate(15404.439 2517.905)" fill="#37f1be"/>
      <path id="Path_1922" data-name="Path 1922" d="M932.286,428.618a3.109,3.109,0,0,0-1.765-2.748,3.525,3.525,0,0,0-3.416.153l-8.813,5.511a3.337,3.337,0,0,0-.808.716l-5.477,6.782a3.508,3.508,0,0,1-2.824,1.239l-1.788-.085a3.354,3.354,0,0,1-2.881-1.837l-1.139-2.275a3.424,3.424,0,0,0-5.978-.182l-2.277,4.09a3.362,3.362,0,0,1-2.949,1.655h-11.3a3.281,3.281,0,0,1-3.234-2.371l-2.71-10.178a3.248,3.248,0,0,0-2.533-2.3,3.459,3.459,0,0,0-3.32,1.116L852.8,447.212a3.456,3.456,0,0,1-3.985.908l-10.464-4.432a3.52,3.52,0,0,0-3.416.331l-3.746,2.6a3.024,3.024,0,0,0-.49.427L820.815,457.3a3.444,3.444,0,0,1-2.687,1.068l-6.456-.384a3.829,3.829,0,0,0-1.048.085l-5.818,1.4a3.436,3.436,0,0,1-3.587-1.26l-.66-.919a3.41,3.41,0,0,0-2.847-1.356l-6.49.182a3.335,3.335,0,0,0-2.038.726l-1.594,1.25a3.5,3.5,0,0,1-2.757.68,3.332,3.332,0,0,1-2.31-1.566l-1.685-2.862a3.449,3.449,0,0,0-4.361-1.314l-10.919,4.923-12.081,5.853a3.512,3.512,0,0,1-2.573.182L741.283,461a3.63,3.63,0,0,0-1.344-.15l-18.628,1.5a3.39,3.39,0,0,0-2.847,2.061l-2.7,7.07a3.235,3.235,0,0,1-1.955,1.866,3.535,3.535,0,0,1-2.782-.178l-.114-.053a3.46,3.46,0,0,0-4.224.812l-2.118,2.542a3.479,3.479,0,0,1-2.277,1.185l-5.83.587a3.606,3.606,0,0,0-.956.224l-9.234,3.706a3.686,3.686,0,0,1-1.309.246h-4.441a3.4,3.4,0,0,1-2.755-1.367l-.638-.876a3.453,3.453,0,0,0-3.712-1.228l-10.35,2.937a3.556,3.556,0,0,1-2.163-.075l-4.8-1.73a3.47,3.47,0,0,0-1.139-.214H644.649a3.381,3.381,0,0,0-1.3.256L633.1,484.2a3.505,3.505,0,0,1-2.277.117l-5.067-1.42a3.53,3.53,0,0,0-2.926.47l-2.22,1.527a3.494,3.494,0,0,1-4.475-.459l-.33-.352a3.485,3.485,0,0,0-3.689-.865l-8.255,2.958a3.532,3.532,0,0,1-2.277,0l-3.621-1.218a3.631,3.631,0,0,0-2.049-.053l-3.416.929a3.42,3.42,0,0,1-3.906-1.6l-1.275-2.4a3.377,3.377,0,0,0-2.983-1.73h-2.96a3.5,3.5,0,0,1-1.139-.171l-11.489-3.781a3.5,3.5,0,0,0-2.551.128l-8.392,3.781a3.6,3.6,0,0,1-1.446.31h-10.6a3.683,3.683,0,0,0-1.309.246l-2.163.876a3.49,3.49,0,0,1-3.94-.95h0a3.408,3.408,0,0,0-2.63-1.207h-5.352a3.488,3.488,0,0,0-2.118.7l-3.109,2.392a3.475,3.475,0,0,1-4.475-.214l-.706-.662a3.5,3.5,0,0,0-3.564-.716l-3.1,1.121a3.624,3.624,0,0,1-2.607-.085l-10.9-4.742a2.819,2.819,0,0,0-.6-.192l-8.551-1.976a3.416,3.416,0,0,0-3.6,1.346l-5.374,7.86a3.1,3.1,0,0,0-.444.983l-1.628,6.675a3.207,3.207,0,0,1-1.366,1.88l-3.552,2.286a3.487,3.487,0,0,1-2.995.363l-7.31-2.435a3.429,3.429,0,0,0-4.088,1.538l-3.849,6.75a3.046,3.046,0,0,0-.387,1.474v3.044a3.179,3.179,0,0,1-2.448,3.012l-6.4,1.666a3.485,3.485,0,0,1-2.061-.085l-5.579-1.976a3.479,3.479,0,0,0-1.48-.192l-9.621.822a3.421,3.421,0,0,1-2.767-1l-1.139-1.185a3.291,3.291,0,0,0-1.81-.961l-4.384-.833a3.6,3.6,0,0,0-2.6.523l-5.773,3.855a3.562,3.562,0,0,1-1.753.577l-8.847.438a3.686,3.686,0,0,0-.979.192l-15.36,5.34a3.452,3.452,0,0,1-2.664-.15l-4.441-2.136a3.517,3.517,0,0,0-1.514-.342h-16.51a3.476,3.476,0,0,1-2.095-.694l-4-3a3.513,3.513,0,0,0-4.019-.107l-4.281,2.862a3.085,3.085,0,0,0-1.4,2.552" transform="translate(14484.086 2100.137)" fill="none" stroke="#7d53de" stroke-miterlimit="10" stroke-width="1"/>
      <ellipse id="Ellipse_163" data-name="Ellipse 163" cx="7.97" cy="7.476" rx="7.97" ry="7.476" transform="translate(14966.073 2568.1)" fill="#37f1be"/>
      <ellipse id="Ellipse_164" data-name="Ellipse 164" cx="7.97" cy="7.476" rx="7.97" ry="7.476" transform="translate(15348.647 2521.108)" fill="#37f1be"/>
      <ellipse id="Ellipse_165" data-name="Ellipse 165" cx="7.97" cy="7.476" rx="7.97" ry="7.476" transform="translate(15149.528 2572.304)" fill="#37f1be"/>
      <ellipse id="Ellipse_166" data-name="Ellipse 166" cx="7.97" cy="7.476" rx="7.97" ry="7.476" transform="translate(15254.143 2544.604)" fill="#37f1be"/>
      <rect id="Rectangle_571" data-name="Rectangle 571" width="666.09" height="0.107" transform="translate(14791.864 2693.002)" fill="#f2f2f2" opacity="0.2"/>
      <ellipse id="Ellipse_167" data-name="Ellipse 167" cx="5.693" cy="5.34" rx="5.693" ry="5.34" transform="translate(14888.646 2687.716)" fill="#37f1be" opacity="0.3"/>
      <ellipse id="Ellipse_168" data-name="Ellipse 168" cx="5.693" cy="5.34" rx="5.693" ry="5.34" transform="translate(14971.766 2687.716)" fill="#37f1be" opacity="0.3"/>
      <ellipse id="Ellipse_169" data-name="Ellipse 169" cx="5.693" cy="5.34" rx="5.693" ry="5.34" transform="translate(15054.885 2687.716)" fill="#37f1be" opacity="0.3"/>
      <ellipse id="Ellipse_170" data-name="Ellipse 170" cx="5.693" cy="5.34" rx="5.693" ry="5.34" transform="translate(15138.003 2687.716)" fill="#37f1be" opacity="0.3"/>
      <ellipse id="Ellipse_171" data-name="Ellipse 171" cx="5.693" cy="5.34" rx="5.693" ry="5.34" transform="translate(15221.122 2687.716)" fill="#37f1be" opacity="0.3"/>
      <ellipse id="Ellipse_172" data-name="Ellipse 172" cx="5.693" cy="5.34" rx="5.693" ry="5.34" transform="translate(15304.241 2687.716)" fill="#37f1be" opacity="0.3"/>
      <ellipse id="Ellipse_173" data-name="Ellipse 173" cx="5.693" cy="5.34" rx="5.693" ry="5.34" transform="translate(15387.36 2687.716)" fill="#37f1be" opacity="0.3"/>
      <path id="Path_1923" data-name="Path 1923" d="M274.383,783.331c-3.416-5.885.455-13.094,4.885-18.337s9.8-10.68,9.69-17.4c-.171-9.612-11.045-15.294-19.732-20.388a94.816,94.816,0,0,1-17.717-13.382,24.759,24.759,0,0,1-5.443-6.835c-1.8-3.759-1.754-8.031-1.64-12.143q.581-20.591,2.175-41.107" transform="translate(14470.537 2115.656)" fill="none" stroke="#3f3d56" stroke-miterlimit="10" stroke-width="4"/>
      <path id="Path_1924" data-name="Path 1924" d="M231.823,653.97a14.858,14.858,0,0,1,7.97-12.282l3.575,6.632-.114-8.031a17.2,17.2,0,0,1,5.272-.6c8.781.409,15.552,7.408,15.133,15.646s-7.868,14.6-16.651,14.224-15.582-7.352-15.2-15.591Z" transform="translate(14468.793 2114.7)" fill="#7d53de"/>
      <path id="Path_1925" data-name="Path 1925" d="M257.066,749.438A16.343,16.343,0,0,0,275.457,757c7.265-1.873,12.14-8.261,11.687-15.315s-6.109-12.848-13.561-13.89-14.664,2.952-17.291,9.576l9.986,7.615L255.29,742.6A14.209,14.209,0,0,0,257.066,749.438Z" transform="translate(14472.049 2120.681)" fill="#7d53de"/>
      <path id="Path_1926" data-name="Path 1926" d="M265.629,722.708c8.23.545,15.543-4.889,16.86-12.529s-3.8-14.959-11.793-16.873l.091,6.173-3.621-6.718h0a16.584,16.584,0,0,0-11.512,3.879,14.59,14.59,0,0,0-5.192,10.389,13.922,13.922,0,0,0,.683,5.116A15.8,15.8,0,0,0,265.629,722.708Z" transform="translate(14471.377 2118.308)" fill="#7d53de"/>
      <path id="Path_1927" data-name="Path 1927" d="M231.564,700.033a16.01,16.01,0,0,0,15.383-9.381,14.331,14.331,0,0,0-4.221-16.748,16.774,16.774,0,0,0-18.232-1.927l2.824,7.262-5.807-5.233a14.588,14.588,0,0,0-5.158,10.349,13.845,13.845,0,0,0,.4,4.133A15.767,15.767,0,0,0,231.564,700.033Z" transform="translate(14466.648 2116.771)" fill="#7d53de"/>
      <path id="Path_1928" data-name="Path 1928" d="M233.93,657.442c3.689.374,7.276,1.453,10.976,1.666s7.765-.619,10.111-3.311c1.252-1.452,1.89-3.3,2.949-4.881A11.123,11.123,0,0,1,262,647.36a14.2,14.2,0,0,1-1.895,15.749,16.529,16.529,0,0,1-15.922,5.3,15.5,15.5,0,0,1-12.061-11.1Q233.031,657.346,233.93,657.442Z" transform="translate(14468.838 2115.223)" fill="#7d53de" opacity="0.1"/>
      <path id="Path_1929" data-name="Path 1929" d="M231.509,699.49a16.3,16.3,0,0,0,14.066-6.632,14.163,14.163,0,0,0,1.134-14.728,11.469,11.469,0,0,0-3.211,3.012c-1.139,1.613-1.833,3.471-3.165,4.956-2.494,2.745-6.741,3.642-10.6,3.482s-7.583-1.2-11.386-1.527c-.535,0-1.07-.075-1.617-.086A15.767,15.767,0,0,0,231.509,699.49Z" transform="translate(14466.704 2117.315)" opacity="0.1"/>
      <path id="Path_1930" data-name="Path 1930" d="M265.547,722.146a16.309,16.309,0,0,0,14.01-6.526A14.166,14.166,0,0,0,280.873,701a12.757,12.757,0,0,0-3.416,3.044c-1.241,1.645-2.015,3.535-3.416,5.052-2.7,2.82-7.23,3.813-11.306,3.717s-7.777-.983-11.7-1.271a15.8,15.8,0,0,0,14.517,10.605Z" transform="translate(14471.459 2118.87)" opacity="0.1"/>
      <path id="Path_1931" data-name="Path 1931" d="M256.85,748.829c3.6,7.547,13.041,10.928,21.087,7.551s11.65-12.232,8.05-19.779a15.435,15.435,0,0,0-3.507,2.926c-1.526,1.741-2.528,3.717-4.281,5.34-3.268,3.012-8.54,4.272-13.242,4.368a75.434,75.434,0,0,1-8.107-.406Z" transform="translate(14472.265 2121.291)" opacity="0.1"/>
      <path id="Path_1932" data-name="Path 1932" d="M297.614,769.147s-12.616-.363-16.419-2.9-19.356-5.564-20.336-1.5S241.9,785.039,256.135,785.1s33.088-2.083,36.891-4.272S297.614,769.147,297.614,769.147Z" transform="translate(14471.409 2123.069)" fill="#656380"/>
      <path id="Path_1933" data-name="Path 1933" d="M255.878,783.278c14.244.107,33.088-2.072,36.88-4.272,2.892-1.655,4.042-7.583,4.429-10.306h.421s-.8,9.537-4.554,11.748-22.647,4.357-36.891,4.272c-4.11,0-5.522-1.4-5.443-3.428C251.256,782.488,252.815,783.257,255.878,783.278Z" transform="translate(14471.415 2123.473)" opacity="0.2"/>
    </g>
    <g id="Group_342" data-name="Group 342" transform="translate(-13507 -2073)">
      <path id="Path_1867" data-name="Path 1867" d="M223.454,303.95s4.421,23.432,1.326,25.2a53.745,53.745,0,0,0-7.074,5.305l7.958,11.053,19.011,3.979,18.127-16.8v-16.8s-5.305-8.4-4.421-13.706S223.454,303.95,223.454,303.95Z" transform="translate(14419.772 2139.535)" fill="#fbbebe"/>
      <path id="Path_1868" data-name="Path 1868" d="M223.454,303.95s4.421,23.432,1.326,25.2a53.745,53.745,0,0,0-7.074,5.305l7.958,11.053,19.011,3.979,18.127-16.8v-16.8s-5.305-8.4-4.421-13.706S223.454,303.95,223.454,303.95Z" transform="translate(14419.772 2139.535)" opacity="0.1"/>
      <path id="Path_1869" data-name="Path 1869" d="M192.948,344.183l-2.653,1.326s-5.748,2.211-8.4,21.222-8.842,64.549-7.074,65.876.884,10.169.884,10.169l13.264-69.413Z" transform="translate(14419.772 2139.535)" fill="#2f2e41"/>
      <path id="Path_1870" data-name="Path 1870" d="M224.387,236.281c-.4.844-.546,1.829-.926,2.689-1.723,3.9-6.628,3.031-10.167,4.508-3,1.251-5.233,4.685-5.467,8.4-.1,1.576.131,3.165-.01,4.736-.262,2.9-1.758,5.458-2.291,8.309-1.294,6.926,1.725,17.864,5.134,14.126,1.075-1.179,2.42-1.96,3.581-3.021,3.015-2.756,4.551-7.137,7-10.576a3.7,3.7,0,0,1,1.244-1.233c1.79-.889,3.383,1.491,4.8,3.051a7.512,7.512,0,0,0,11.27-.215,6.614,6.614,0,0,1,1.588-1.622,3.386,3.386,0,0,1,2.207-.217,14.486,14.486,0,0,1,8.834,5.26c1.181,1.446,2.169,3.147,3.586,4.268s3.482,1.49,4.758.158c2.567,1.815,3.524,5.667,3.531,9.175s-.712,6.993-.537,10.5,1.55,7.282,4.341,8.567a12.475,12.475,0,0,1,4.619-8.082c1.9-1.415,4.211-2.116,5.818-3.962,3.218-3.7,2.2-9.846,2.322-15.12.152-6.5,2.407-12.723,2.8-19.214.2-3.244-.136-6.721-1.843-9.288a15.262,15.262,0,0,0-4.807-4.164L260.6,233.571a6.476,6.476,0,0,0-2.25-1.067c-2.234-.4-4.165,1.694-6.283,2.618a12.722,12.722,0,0,1-5.514.669c-5.891-.16-7.549.984-11.509-2.854a2.791,2.791,0,0,0-2.392-.8C230.284,232.514,225.682,233.577,224.387,236.281Z" transform="translate(14419.772 2139.535)" fill="#2f2e41"/>
      <path id="Path_1871" data-name="Path 1871" d="M97.511,716.92l9.284,20.337-18.127,6.19-9.284-4.863L81.6,716.92Z" transform="translate(14555 2193)" fill="#fbbebe"/>
      <path id="Path_1872" data-name="Path 1872" d="M224.338,787.627s-14.59-8.842-17.243-5.748-23.874,25.643-23.874,25.643S150.5,825.207,175.7,827.86s66.318-15.474,66.318-15.474,2.211-23.874.442-24.317-9.284,3.979-12.821,2.653a15.853,15.853,0,0,1-5.305-3.095Z" transform="translate(14419.772 2139.535)" fill="#2f2e41"/>
      <path id="Path_1873" data-name="Path 1873" d="M121.385,738.584V756.71l-23.874-5.3,5.305-18.569Z" transform="translate(14555 2193)" fill="#fbbebe"/>
      <path id="Path_1874" data-name="Path 1874" d="M232.3,798.238s24.317-3.979,26.527,7.958,7.958,29.622,2.211,34.043-35.37,10.169-35.812,2.653,3.095-22.106,3.095-22.106,2.211-11.5.884-14.59S232.3,798.238,232.3,798.238Z" transform="translate(14419.772 2139.535)" fill="#2f2e41"/>
      <path id="Path_1875" data-name="Path 1875" d="M183.728,499.7s-19.96,126.559-3.6,188.456,27.854,98.592,27.854,98.592,28.3-7.958,28.3-13.263-11.053-84-13.706-91.518-7.074-10.169-3.095-16.358,10.611-45.98,10.611-45.98,14.59,65.876,15.474,67.644-9.285,103.014-9.285,103.014,29.185,21.179,30.948,5.305c.442-3.979,19.9-145.015,19.9-146.783s7.958-137.057-4.863-143.688S183.728,499.7,183.728,499.7Z" transform="translate(14419.772 2139.535)" fill="#2f2e41"/>
      <circle id="Ellipse_160" data-name="Ellipse 160" cx="30.064" cy="30.064" r="30.064" transform="translate(14630.405 2392.199)" fill="#fbbebe"/>
      <path id="Path_1876" data-name="Path 1876" d="M234.065,342.414v-3.095l-8.842-14.59s-8.842.884-10.169,4.863S198.7,365.4,198.7,365.4l-15.916,142.8s43.77,10.611,50.4,3.095,31.833-171.1,31.833-171.1l3.537-19.895s-6.073-8.842-7.458-7.516-24.375,26.969-24.375,26.969l-.442,3.979Z" transform="translate(14419.772 2139.535)" fill="#7d53de"/>
      <path id="Path_1877" data-name="Path 1877" d="M225,321.856s-8.179-1.99-10.832,2.874-2.653,6.632-5.305,8.4-18.127,9.727-19.011,12.821-19.9,100.8-19.9,100.8-9.284,29.18-4.863,49.075S166.42,519.7,175.7,521.472s10.611,1.768,10.611-.884,11.937-92.4,20.337-98.592,6.19-73.834,6.19-73.834,11.937-14.59,11.937-16.8S226.77,321.69,225,321.856Z" transform="translate(14419.772 2139.535)" fill="#2f2e41"/>
      <path id="Path_1878" data-name="Path 1878" d="M249.981,337.993c1.233.206,18.127-21.664,19.453-20.78s7.958,12.379,8.842,12.379,38.464,9.284,41.559,26.527-21.664,72.065-21.664,72.065-10.611,31.39-8.4,45.1a92.331,92.331,0,0,1-.884,31.39c-.884,3.537-3.979,7.516-3.095,9.284s-19.453-2.211-27.853,2.653-45.98,8.4-43.77,3.095,3.537-26.085,9.727-48.191S246,397.237,243.349,393.7,247.328,337.551,249.981,337.993Z" transform="translate(14419.772 2139.535)" fill="#2f2e41"/>
      <path id="Path_1879" data-name="Path 1879" d="M314.53,350.814l5.748,5.305s6.632,11.5,5.748,16.8,18.569,85.329,10.611,87.982-26.969,15.916-29.18,19.453-7.516,9.727-11.053,11.5-7.074,4.863-9.284,3.095-7.074-38.022-3.537-39.349,7.074-5.305,10.611-5.305,5.748-3.537,5.748-6.632S297.287,422,297.287,422l-5.748-43.77Z" transform="translate(14419.772 2139.535)" fill="#2f2e41"/>
      <path id="Path_1880" data-name="Path 1880" d="M229.691,240.68c-.358.638-.483,1.383-.818,2.033-1.524,2.952-5.861,2.291-8.989,3.408a7.488,7.488,0,0,0-4.834,6.347c-.088,1.191.116,2.392-.009,3.58-.231,2.194-1.554,4.126-2.025,6.281-1.144,5.236,1.525,13.5,4.539,10.679.95-.891,2.14-1.482,3.167-2.284,2.666-2.083,4.024-5.4,6.19-7.995a3.085,3.085,0,0,1,1.1-.932c1.583-.672,2.991,1.127,4.242,2.307a7.414,7.414,0,0,0,9.965-.163,5.482,5.482,0,0,1,1.4-1.226,3.463,3.463,0,0,1,1.951-.164,13.367,13.367,0,0,1,7.811,3.976,21.365,21.365,0,0,0,3.17,3.227c1.252.847,3.079,1.127,4.207.119,2.27,1.372,3.116,4.284,3.122,6.936s-.629,5.287-.474,7.934,1.371,5.5,3.838,6.476a9.24,9.24,0,0,1,4.084-6.109c1.681-1.069,3.723-1.6,5.145-3,2.846-2.795,1.944-7.443,2.053-11.43.135-4.917,2.128-9.618,2.48-14.525.176-2.452-.12-5.081-1.63-7.021a13.124,13.124,0,0,0-4.251-3.148l-13.418-7.36a6.2,6.2,0,0,0-1.989-.807c-1.975-.3-3.683,1.281-5.555,1.979a13.038,13.038,0,0,1-4.876.506c-5.209-.121-6.675.744-10.176-2.157a2.738,2.738,0,0,0-2.115-.6C234.9,237.833,230.836,238.636,229.691,240.68Z" transform="translate(14419.772 2139.535)" fill="#2f2e41"/>
    </g>
  </g>
</svg>
