<svg xmlns="http://www.w3.org/2000/svg" xmlns:xlink="http://www.w3.org/1999/xlink" width="961.729" height="692.707" viewBox="0 0 961.729 692.707">
  <defs>
    <linearGradient id="linear-gradient" x1="0.693" y1="1" x2="0.693" gradientUnits="objectBoundingBox">
      <stop offset="0" stop-color="gray" stop-opacity="0.251"/>
      <stop offset="0.54" stop-color="gray" stop-opacity="0.122"/>
      <stop offset="1" stop-color="gray" stop-opacity="0.102"/>
    </linearGradient>
  </defs>
  <g id="undraw_quitting_time_dm8t" transform="translate(0 -0.013)">
    <path id="Path_2000" data-name="Path 2000" d="M599.767,169.567C538.115,167.5,479.389,148.29,423.32,127.274S311.7,82.946,251.518,71.836c-38.71-7.165-82.967-8.142-114.159,11.851-30,19.269-39.707,52.543-44.92,83.419-3.923,23.223-6.228,47.667,4.516,69.415,7.467,15.09,20.714,27.782,29.875,42.239,31.888,50.317,9.351,112.359-25.2,161.482-16.206,23.015-35,45.034-47.51,69.56s-18.28,52.642-7.346,77.665c10.847,24.806,36.688,43.424,64.688,56.541,56.86,26.615,123.871,34.232,189.247,38.548,144.593,9.58,289.969,5.41,435.027,1.276,53.669-1.538,107.527-3.085,160.369-11.1,29.316-4.451,59.587-11.507,80.86-28.551,27.028-21.63,33.72-58.269,15.613-85.391C962.209,513.285,878.235,501.977,857,453.152c-11.708-26.887.335-56.84,17.307-81.754,36.421-53.475,97.479-100.418,100.7-161.519,2.211-41.985-27.14-84.034-72.525-103.9-47.57-20.807-113.548-18.2-148.636,16.284C717.71,157.734,654.21,171.395,599.767,169.567Z" transform="translate(-40.99 -67.14)" fill="#7c52dd" opacity="0.1"/>
    <ellipse id="Ellipse_213" data-name="Ellipse 213" cx="110.967" cy="18.998" rx="110.967" ry="18.998" transform="translate(579.697 654.724)" fill="#7c52dd" opacity="0.1"/>
    <path id="Path_2001" data-name="Path 2001" d="M281.049,389.56l-.275,15.958L278.52,534.9l-19.277,47.486-66.443.8V396.906l69.342-5.772Z" transform="translate(-26.951 -37.138)" fill="#5f5d7e"/>
    <path id="Path_2002" data-name="Path 2002" d="M281.049,389.56l-.275,15.958L278.52,534.9l-19.277,47.486-66.443.8V396.906l69.342-5.772Z" transform="translate(-26.951 -37.138)" opacity="0.1"/>
    <path id="Path_2003" data-name="Path 2003" d="M291.846,389.56l-.275,15.958L289.317,534.9,270.04,582.389l5.075-176.563-.017-.118-2.159-14.574Z" transform="translate(-37.748 -37.138)" fill="#5f5d7e"/>
    <path id="Path_2004" data-name="Path 2004" d="M262.142,391.134l18.907-1.574-.275,15.958-16.473.19-71.5.841v-9.644Z" transform="translate(-26.951 -37.138)" opacity="0.1"/>
    <path id="Path_2005" data-name="Path 2005" d="M977.11,396.554v185.2H961.644L899.76,534.289V391.334l55.286-5.464,3.389,1.637,3.209,1.556Z" transform="translate(-125.775 -36.786)" fill="#5f5d7e"/>
    <rect id="Rectangle_572" data-name="Rectangle 572" width="15.467" height="194.249" transform="translate(835.868 350.721)" opacity="0.1"/>
    <path id="Path_2006" data-name="Path 2006" d="M977.11,387.507v10.648l-15.467.19-61.884.715v-7.726l55.286-5.464,3.389,1.637,3.209,1.556v-1.556Z" transform="translate(-125.775 -36.786)" opacity="0.1"/>
    <path id="Path_2007" data-name="Path 2007" d="M866.171,379.4v15.09l-760.041,8.92V384.2l71.509-15.207L799.977,364.2Z" transform="translate(-14.836 -34.72)" fill="#5f5d7e"/>
    <path id="Path_2008" data-name="Path 2008" d="M866.171,381v15.09L106.13,405.01V385.8Z" transform="translate(-14.836 -36.322)" opacity="0.1"/>
    <ellipse id="Ellipse_214" data-name="Ellipse 214" cx="34.262" cy="2.307" rx="34.262" ry="2.307" transform="translate(186.546 336.835)" opacity="0.1"/>
    <path id="Path_2009" data-name="Path 2009" d="M323.4,342.8a13.989,13.989,0,0,0-1.72,3.438c-.1.3-.206.642-.31.968a2.6,2.6,0,0,0-.611-.217,8.032,8.032,0,0,0-2.71-.253q0-.552.052-1.167c.112-4.216-.361-10.1-4.189-7.608-3.665,2.4-1.049,6.387,1.316,8.965.206.226.413.434.611.633-2.159,1.628-2.581,5.383-2.933,9.309s-3.527,8.232-5.626,10.675l-.6.678a7.4,7.4,0,0,0-6.116-1.656q-.146-.516-.284-1.086c-1.72-6.468-5.239-17.677-9.755-20.138l.594-.787c1.918-2.642,4.077-6.559.86-7.563s-3.441,3.4-3.295,6.695c0,.416.052.805.086,1.176a4.616,4.616,0,0,0-3.312,1.71c-.155-.2-.31-.4-.49-.615-2.581-3.212-7.329-8.3-8.766-4.442-1.333,3.619,2.839,8.232,5.781,10.928l.181.172c-1.97,8.413,6.632,15.271,11.269,18.265l.594.389c-6.391,7.916-10.323,22.761-10.323,22.761l17.892,3.365s11.862-10.766,10.323-20.88h.12c11.854-2.5,14.555-15.8,12.705-23.684l.215-.09a13.658,13.658,0,0,0,5.488-4.37C333.764,343.517,326.8,338.044,323.4,342.8Z" transform="translate(-73.833 -92.852)" fill="#37f1be"/>
    <path id="Path_2010" data-name="Path 2010" d="M323.4,342.8a13.989,13.989,0,0,0-1.72,3.438c-.1.3-.206.642-.31.968a2.6,2.6,0,0,0-.611-.217,8.032,8.032,0,0,0-2.71-.253q0-.552.052-1.167c.112-4.216-.361-10.1-4.189-7.608-3.665,2.4-1.049,6.387,1.316,8.965.206.226.413.434.611.633-2.159,1.628-2.581,5.383-2.933,9.309s-3.527,8.232-5.626,10.675l-.6.678a7.4,7.4,0,0,0-6.116-1.656q-.146-.516-.284-1.086c-1.72-6.468-5.239-17.677-9.755-20.138l.594-.787c1.918-2.642,4.077-6.559.86-7.563s-3.441,3.4-3.295,6.695c0,.416.052.805.086,1.176a4.616,4.616,0,0,0-3.312,1.71c-.155-.2-.31-.4-.49-.615-2.581-3.212-7.329-8.3-8.766-4.442-1.333,3.619,2.839,8.232,5.781,10.928l.181.172c-1.97,8.413,6.632,15.271,11.269,18.265l.594.389c-6.391,7.916-10.323,22.761-10.323,22.761l17.892,3.365s11.862-10.766,10.323-20.88h.12c11.854-2.5,14.555-15.8,12.705-23.684l.215-.09a13.658,13.658,0,0,0,5.488-4.37C333.764,343.517,326.8,338.044,323.4,342.8Z" transform="translate(-73.833 -92.852)" opacity="0.1"/>
    <path id="Path_2011" data-name="Path 2011" d="M287.953,348.577l-2.09,6.441a34.34,34.34,0,0,1-2.632-2.225c-2.933-2.714-7.114-7.346-5.772-10.928,1.437-3.854,6.176,1.23,8.766,4.442C287.264,347.591,287.953,348.577,287.953,348.577Z" transform="translate(-74.009 -93.198)" fill="#7c52dd"/>
    <path id="Path_2012" data-name="Path 2012" d="M294.433,344.558a31.34,31.34,0,0,1-2.039,2.524q-.267-1.685-.37-3.392c-.172-3.293.155-7.672,3.295-6.695S296.351,341.917,294.433,344.558Z" transform="translate(-76.076 -92.853)" fill="#7c52dd"/>
    <path id="Path_2013" data-name="Path 2013" d="M325.228,345.626c-.06,2.117-.258,3.809-.258,3.809a25.089,25.089,0,0,1-2.581-2.452c-2.366-2.578-4.989-6.568-1.316-8.965C324.867,335.53,325.34,341.41,325.228,345.626Z" transform="translate(-79.887 -92.907)" fill="#7c52dd"/>
    <path id="Path_2014" data-name="Path 2014" d="M338.978,348.783a13.658,13.658,0,0,1-5.488,4.37,15.234,15.234,0,0,1-1.841.7l-2.469-3.619a28.324,28.324,0,0,1,1.024-3.537,13.99,13.99,0,0,1,1.72-3.438C335.339,338.479,342.3,343.952,338.978,348.783Z" transform="translate(-81.275 -93.287)" fill="#7c52dd"/>
    <path id="Path_2015" data-name="Path 2015" d="M287.2,346.92c1.041,1.285,1.72,2.271,1.72,2.271l-2.09,6.441a34.338,34.338,0,0,1-2.632-2.225,12.878,12.878,0,0,1,2.357-5.654C286.772,347.454,286.987,347.173,287.2,346.92Z" transform="translate(-74.988 -93.812)" opacity="0.1"/>
    <path id="Path_2016" data-name="Path 2016" d="M294.439,345.278A31.334,31.334,0,0,1,292.4,347.8q-.267-1.685-.37-3.392a4.066,4.066,0,0,1,2.409.868Z" transform="translate(-76.082 -93.573)" opacity="0.1"/>
    <path id="Path_2017" data-name="Path 2017" d="M303.616,370.966l-5.2,2.406a30.466,30.466,0,0,1-2.77-1.647c-5.471-3.537-16.464-12.439-9.092-22.942s13.523,8.332,15.94,17.541C303.22,369.075,303.616,370.966,303.616,370.966Z" transform="translate(-74.972 -93.694)" fill="#7c52dd"/>
    <path id="Path_2018" data-name="Path 2018" d="M322.87,347.857a4.143,4.143,0,0,1,2.865-1.357c-.06,2.117-.258,3.809-.258,3.809a25.062,25.062,0,0,1-2.606-2.452Z" transform="translate(-80.393 -93.772)" opacity="0.1"/>
    <path id="Path_2019" data-name="Path 2019" d="M333.49,353.709a15.241,15.241,0,0,1-1.841.7l-2.469-3.619a28.326,28.326,0,0,1,1.024-3.537C331.8,348.209,332.965,350.642,333.49,353.709Z" transform="translate(-81.275 -93.843)" opacity="0.1"/>
    <path id="Path_2020" data-name="Path 2020" d="M317.473,377.531q-.43.09-.86.163c-17.436,2.8-5.746-7.111-5.746-7.111s.783-.76,1.849-2c2.1-2.443,5.273-6.722,5.634-10.675.542-5.944,1.178-11.516,7.854-9.879S333.989,374.057,317.473,377.531Z" transform="translate(-78.179 -93.89)" fill="#7c52dd"/>
    <rect id="Rectangle_573" data-name="Rectangle 573" width="33.333" height="9.219" transform="translate(205.642 329.317)" fill="#474157"/>
    <rect id="Rectangle_574" data-name="Rectangle 574" width="43.553" height="32.17" transform="translate(200.343 299.363)" fill="#474157"/>
    <rect id="Rectangle_575" data-name="Rectangle 575" width="33.333" height="9.219" transform="translate(205.315 329.317)" opacity="0.1"/>
    <rect id="Rectangle_576" data-name="Rectangle 576" width="43.553" height="32.17" transform="translate(200.206 299.363)" opacity="0.1"/>
    <rect id="Rectangle_577" data-name="Rectangle 577" width="33.333" height="9.219" transform="translate(207.836 329.317)" fill="#474157"/>
    <path id="Path_2021" data-name="Path 2021" d="M304.367,368.5c.731,2.714,1.127,4.641,1.127,4.641l-5.2,2.406a30.466,30.466,0,0,1-2.77-1.647C299.559,371.187,301.855,369.133,304.367,368.5Z" transform="translate(-76.85 -95.869)" opacity="0.1"/>
    <path id="Path_2022" data-name="Path 2022" d="M317.473,379.727q-.43.09-.86.163c-17.436,2.8-5.746-7.111-5.746-7.111s.783-.76,1.849-2A12.253,12.253,0,0,1,317.473,379.727Z" transform="translate(-78.179 -96.087)" opacity="0.1"/>
    <path id="Path_2023" data-name="Path 2023" d="M286.2,397.151s9.772-36.775,23.467-25.439-5.574,28.8-5.574,28.8Z" transform="translate(-75.267 -95.969)" fill="#7c52dd"/>
    <ellipse id="Ellipse_215" data-name="Ellipse 215" cx="1.092" cy="1.149" rx="1.092" ry="1.149" transform="translate(214.778 259.703)" fill="#65fefd" opacity="0.1"/>
    <ellipse id="Ellipse_216" data-name="Ellipse 216" cx="1.092" cy="1.149" rx="1.092" ry="1.149" transform="translate(214.683 265.086)" opacity="0.1"/>
    <ellipse id="Ellipse_217" data-name="Ellipse 217" cx="1.092" cy="1.149" rx="1.092" ry="1.149" transform="translate(246.459 260.761)" opacity="0.1"/>
    <ellipse id="Ellipse_218" data-name="Ellipse 218" cx="1.092" cy="1.149" rx="1.092" ry="1.149" transform="translate(220.894 288.318)" opacity="0.1"/>
    <ellipse id="Ellipse_219" data-name="Ellipse 219" cx="1.092" cy="1.149" rx="1.092" ry="1.149" transform="translate(244.171 269.69)" opacity="0.1"/>
    <ellipse id="Ellipse_220" data-name="Ellipse 220" cx="1.092" cy="1.149" rx="1.092" ry="1.149" transform="translate(232.851 281.596)" opacity="0.1"/>
    <ellipse id="Ellipse_221" data-name="Ellipse 221" cx="1.092" cy="1.149" rx="1.092" ry="1.149" transform="translate(218.52 262.01)" opacity="0.1"/>
    <ellipse id="Ellipse_222" data-name="Ellipse 222" cx="1.092" cy="1.149" rx="1.092" ry="1.149" transform="translate(243.44 264.217)" opacity="0.1"/>
    <ellipse id="Ellipse_223" data-name="Ellipse 223" cx="1.092" cy="1.149" rx="1.092" ry="1.149" transform="translate(239.698 273.146)" opacity="0.1"/>
    <ellipse id="Ellipse_224" data-name="Ellipse 224" cx="1.092" cy="1.149" rx="1.092" ry="1.149" transform="translate(228.197 287.458)" fill="#65fefd" opacity="0.1"/>
    <ellipse id="Ellipse_225" data-name="Ellipse 225" cx="1.092" cy="1.149" rx="1.092" ry="1.149" transform="translate(225.823 281.795)" fill="#7c52dd" opacity="0.1"/>
    <ellipse id="Ellipse_226" data-name="Ellipse 226" cx="1.092" cy="1.149" rx="1.092" ry="1.149" transform="translate(220.163 269.021)" opacity="0.1"/>
    <rect id="Rectangle_578" data-name="Rectangle 578" width="33.333" height="3.365" transform="translate(207.836 329.317)" opacity="0.1"/>
    <rect id="Rectangle_579" data-name="Rectangle 579" width="43.553" height="32.17" transform="translate(202.537 299.363)" fill="#474157"/>
    <ellipse id="Ellipse_227" data-name="Ellipse 227" cx="1.092" cy="1.149" rx="1.092" ry="1.149" transform="translate(229.66 292.642)" opacity="0.1"/>
    <ellipse id="Ellipse_228" data-name="Ellipse 228" cx="1.092" cy="1.149" rx="1.092" ry="1.149" transform="translate(223.079 294.08)" opacity="0.1"/>
    <path id="Path_2024" data-name="Path 2024" d="M420.573,533.93s5.428,7.463-2.5,18.736-14.477,20.807-11.837,27.809c0,0,11.974-20.934,21.712-21.223S431.257,546.514,420.573,533.93Z" transform="translate(-91.963 -111.641)" fill="#7c52dd"/>
    <path id="Path_2025" data-name="Path 2025" d="M420.624,533.93a9.694,9.694,0,0,1,1.11,2.334c9.505,11.761,14.572,22.716,5.428,22.987-8.508.253-18.718,16.284-21.161,20.3a8.141,8.141,0,0,0,.284.9S418.258,559.523,428,559.233,431.307,546.514,420.624,533.93Z" transform="translate(-92.014 -111.641)" opacity="0.1"/>
    <path id="Path_2026" data-name="Path 2026" d="M434.486,544.263c0,2.633-.284,4.759-.628,4.759s-.628-2.126-.628-4.759.353-1.384.7-1.384S434.486,541.639,434.486,544.263Z" transform="translate(-95.82 -112.466)" fill="#ffd037"/>
    <path id="Path_2027" data-name="Path 2027" d="M438.008,547.72c-2.194,1.257-4.1,2.017-4.3,1.7s1.48-1.6,3.673-2.859,1.325-.344,1.488,0S440.2,546.463,438.008,547.72Z" transform="translate(-95.885 -112.784)" fill="#ffd037"/>
    <path id="Path_2028" data-name="Path 2028" d="M387.65,533.93s-5.437,7.463,2.5,18.736,14.477,20.807,11.828,27.809c0,0-11.966-20.934-21.712-21.223S376.932,546.514,387.65,533.93Z" transform="translate(-87.745 -111.641)" fill="#7c52dd"/>
    <path id="Path_2029" data-name="Path 2029" d="M387.65,533.93a9.312,9.312,0,0,0-1.11,2.334c-9.514,11.761-14.572,22.716-5.437,22.987,8.516.253,18.727,16.284,21.17,20.3a8.455,8.455,0,0,1-.292.9s-11.966-20.934-21.712-21.223S376.932,546.514,387.65,533.93Z" transform="translate(-87.745 -111.641)" opacity="0.1"/>
    <path id="Path_2030" data-name="Path 2030" d="M377.89,544.263c0,2.633.284,4.759.628,4.759s.628-2.126.628-4.759-.353-1.384-.7-1.384S377.89,541.639,377.89,544.263Z" transform="translate(-88.084 -112.466)" fill="#ffd037"/>
    <path id="Path_2031" data-name="Path 2031" d="M373.656,547.72c2.194,1.257,4.1,2.017,4.3,1.7s-1.471-1.6-3.665-2.859-1.333-.344-1.5,0S371.462,546.463,373.656,547.72Z" transform="translate(-87.308 -112.784)" fill="#ffd037"/>
    <ellipse id="Ellipse_229" data-name="Ellipse 229" cx="56.757" cy="9.164" rx="56.757" ry="9.164" transform="translate(257.487 507.617)" fill="#7c52dd" opacity="0.1"/>
    <path id="Path_2032" data-name="Path 2032" d="M430.754,573.893l-.275,2.334-.378,3.293-.155,1.366-.378,3.3-.172,1.366-.379,3.293-4.344,37.444c-.387,3.347-5.574,5.953-11.845,5.953H390.255c-6.262,0-11.449-2.605-11.837-5.953l-4.353-37.444-.378-3.293-.155-1.366-.4-3.3-.155-1.366-.378-3.293-.275-2.334c-.215-1.891,2.581-3.483,6.142-3.483h46.15C428.164,570.41,430.977,572,430.754,573.893Z" transform="translate(-87.305 -115.119)" fill="#65617d"/>
    <path id="Path_2033" data-name="Path 2033" d="M389.544,509.69l-.387,3.293H332.047l-.387-3.293Z" transform="translate(-46.362 -48.591)" fill="#9d9cb5"/>
    <path id="Path_2034" data-name="Path 2034" d="M389.09,514.85l-.379,3.293H332.677l-.387-3.293Z" transform="translate(-46.45 -49.083)" fill="#9d9cb5"/>
    <path id="Path_2035" data-name="Path 2035" d="M388.636,520.01l-.379,3.293h-54.95l-.387-3.293Z" transform="translate(-46.538 -49.575)" fill="#9d9cb5"/>
    <path id="Path_2036" data-name="Path 2036" d="M597.946,430.193v1.864h-52.4v-1.511a18.481,18.481,0,0,0,1.185-33.446h50.858a18.485,18.485,0,0,0,.353,33.093Z" transform="translate(-111.521 -98.596)" fill="#c8cad7"/>
    <path id="Path_2037" data-name="Path 2037" d="M597.786,397.1a17.9,17.9,0,0,0-9.505,12H556.453a17.951,17.951,0,0,0-9.523-12Z" transform="translate(-111.714 -98.596)" opacity="0.1"/>
    <path id="Path_2038" data-name="Path 2038" d="M475.8,386.6v10.467c0,5.772,4.026,10.458,8.981,10.458H638.939c4.955,0,8.981-4.686,8.981-10.458V386.6Z" transform="translate(-101.771 -97.595)" fill="#c8cad7"/>
    <path id="Path_2039" data-name="Path 2039" d="M597.946,433.479v1.864h-52.4v-1.511a17.073,17.073,0,0,0,4.043-2.262h45.144A17.1,17.1,0,0,0,597.946,433.479Z" transform="translate(-111.521 -101.882)" opacity="0.1"/>
    <rect id="Rectangle_580" data-name="Rectangle 580" width="87.028" height="5.518" rx="2.759" transform="translate(416.721 330.267)" fill="#c8cad7"/>
    <path id="Path_2040" data-name="Path 2040" d="M647.92,258.915a9.221,9.221,0,0,0-8.981-9.445H484.781a9.221,9.221,0,0,0-8.981,9.445V375.562H647.92Z" transform="translate(-101.771 -84.521)" fill="#5f5d7e"/>
    <path id="Path_2041" data-name="Path 2041" d="M643.986,264.071V364.308a4.54,4.54,0,0,1-4.421,4.65H485.681a4.54,4.54,0,0,1-4.421-4.65V264.071a4.782,4.782,0,0,1,.637-2.316,4.4,4.4,0,0,1,3.828-2.325h153.84a4.54,4.54,0,0,1,4.421,4.641Z" transform="translate(-102.534 -85.471)" fill="#7c52dd"/>
    <ellipse id="Ellipse_230" data-name="Ellipse 230" cx="2.073" cy="2.18" rx="2.073" ry="2.18" transform="translate(458.02 167.265)" fill="#fff"/>
    <ellipse id="Ellipse_231" data-name="Ellipse 231" cx="5.11" cy="5.374" rx="5.11" ry="5.374" transform="translate(454.983 294.533)" fill="#fff"/>
    <path id="Path_2042" data-name="Path 2042" d="M643.986,264.07H481.26a4.54,4.54,0,0,1,4.422-4.65H639.565a4.54,4.54,0,0,1,4.421,4.65Z" transform="translate(-102.534 -85.47)" fill="#fff"/>
    <ellipse id="Ellipse_232" data-name="Ellipse 232" cx="1.101" cy="1.158" rx="1.101" ry="1.158" transform="translate(382.055 175.117)" fill="#ededf4"/>
    <ellipse id="Ellipse_233" data-name="Ellipse 233" cx="1.101" cy="1.158" rx="1.101" ry="1.158" transform="translate(385.367 175.117)" fill="#ededf4"/>
    <ellipse id="Ellipse_234" data-name="Ellipse 234" cx="1.101" cy="1.158" rx="1.101" ry="1.158" transform="translate(388.678 175.117)" fill="#ededf4"/>
    <path id="Path_2043" data-name="Path 2043" d="M697.816,451.991s10.323,4.415,22.994,9.707a36.075,36.075,0,0,1,1,4.65c.224,3.076,6.022,7.409,6.022,7.409s10.753,2.045,18.847,4.442c6.288,1.809,7.157-1.809,6.348-3.221l1.884.76c.422,18.31.9,31.663.9,31.663s2.753,0,7.1.217c.052.579.1,1.176.163,1.809,1.66,18.093,4.714,47.947,7.079,50.426,3.441,3.5,1.918,29.3.594,33.862s0,37.372,0,37.372a170.874,170.874,0,0,1,4.877,41.922c-.447,21.875,5.763,33.273,5.763,33.273l2.228.172c0,.606-.069,1.2-.095,1.809-.1,1.981-.181,3.962-.207,5.763a14.635,14.635,0,0,1-2.581,7.617,48.142,48.142,0,0,0-7.217,17.867,40.984,40.984,0,0,0-.551,4.342,2.942,2.942,0,0,1-.043.561s2.064,6.387,21.436,8.513,16.568-12.611,16.568-12.611.095-.416.215-1.176a46.378,46.378,0,0,0,.078-15.072c-.68-3.89-.095-10.621.748-16.791.086-.642.181-1.276.267-1.9a10.59,10.59,0,0,0,4.447-2.171c6.064-5.817,0-52.063,0-52.063s-10.942-37.824-8.275-43.3,5.763-18.681,5.763-18.681V543.136c4.3-7.3,6.236-17.288,7.036-26.38.052-.606.1-1.2.146-1.809,3.587.072,7.028-.063,10.15-.289l.86,1.809c5.075,10.34,10.237,20.581,11.5,22.092,2.658,3.193.439,17.777,0,25.068S848.74,585.5,848.74,585.5c-6.649,4.1-7.983,52.407-7.983,52.407s4.877,11.851-5.325,25.068-6.211,38.285-4.877,37.372c.353-.244,2.512.127,5.583.66a15.8,15.8,0,0,1-2.925,5.9c-3.295,4.306-4.422,11.055-4.748,16.447a61.948,61.948,0,0,0,0,8.44l7.389,5.428s4.585,0,4.585,4.261,11.234,8.5,11.234,8.5,16.705,4.858,29.574,0c4.172-1.574,5.445-4.279,4.955-7.563-1.015-6.866-9.746-16.284-16.043-23.123-4.25-4.641-6.185-10.793-7.045-16.121-.095-.57-.172-1.131-.241-1.683a5.141,5.141,0,0,0,1.368-1.185c5.325-6.839,11.088-25.521,11.088-25.521s-2.632-19.089,3.131-36.44c4.3-12.837,9.522-42.926,11.948-57.663a60.432,60.432,0,0,0,.482-16.194c-1.118-10.756-2.839-30.686-2.228-46.463.206-5.148.06-13.335-.275-22.933v-.136c3.157-6.269,10-16.5,21.428-17.342,16.559-1.221,7.983-10.784,7.983-10.784s-9.712-71.767-16.112-84.5a5.339,5.339,0,0,0-.336-.642c-.946-1.583-1.978-4.749-3.071-8.974-6.305-24.471-14.374-84.758-14.374-84.758l-.989-14.665c9.875,5.093,28.2,14.384,35.587,17.1,10.323,3.8,24.688,1.366,28.241-11.091s-11.234-37.67-11.234-37.67c-2.176-8.938-17.2-27.547-25.024-36.784-.757-1.2-1.505-2.4-2.237-3.537-2.013-3.157-3.828-5.944-4.981-7.581l-.112.226c-.284-.416-.551-.805-.783-1.131l-.189.4c-2.8-5.428-5.935-11.01-8.37-14-5.66-6.948-30.348-14.42-32.791-12.367-1.781,1.493,5.609,8.006,10.778,12l-4.937-3.51L855.829,165.3l-4.86-3.456a4.6,4.6,0,0,0-.637-.38,38.188,38.188,0,0,0-5.609-30.632c-.344-.5-.714-1-1.084-1.475,5.084-4.451,6.693-11.806,6.693-18.274v-.244a13.257,13.257,0,0,0-2.951-6.523c.077.163.155.344.224.516a9.839,9.839,0,0,0-7.441-4.026c-4.3-.072-7.905,2.895-11.682,4.93a28.845,28.845,0,0,1-25.161.9c-2.331-1.049-4.68-2.443-7.209-2.225s-4.533,1.927-6.254,3.709a43.323,43.323,0,0,0-9.548,14.855,12.819,12.819,0,0,1-2.434,4.614,17.081,17.081,0,0,1-3.028,2.081,17.147,17.147,0,0,0-7.217,11.109,25.069,25.069,0,0,0,1.3,13.434A20.442,20.442,0,0,0,773.7,162c1.609,1.565,3.535,2.714,5.239,4.189a19.3,19.3,0,0,1,2.159,2.171,40.433,40.433,0,0,0-20.361,11.869,56.038,56.038,0,0,0-10.323,14.583c-7.2,14.23-11.57,23.087-14.168,28.7-1.3.416-2.1.615-2.1.615s-9.755,9.11-9.609,35.237h0l-7.544,52.253v26.733s-9.712,29.013-8.12,53.022a5.077,5.077,0,0,0,.06.959l-.791,4.08a9.745,9.745,0,0,0-1.72,6.043,8.127,8.127,0,0,0,.155,2.207l-3.957,20.554.748.832-2.039,6.034C693.644,445,697.816,451.991,697.816,451.991Zm57.049-146.556c.49.353.766.534.766.534s4.3,40.5,1.72,64.584l-9.058-.651-4.3-1.393,1.54-12.873s5.514-33.916,9.3-50.2Zm35.6-117.561.86-1.393c-.181.5-.361.986-.551,1.438Zm-40.886,182.48,4.688.507,2.968.651q-.077.651-.155,1.276ZM850.332,195.248a11.54,11.54,0,0,0-.086-1.348l3.682,2.3.224.145c-1.273-.389-2.581-.733-3.819-1.049Zm28.576,17.912a29.038,29.038,0,0,0-1.634-2.415c2.581.651,4.181,1.031,4.181,1.031a10.9,10.9,0,0,1,6.125.651,36.424,36.424,0,0,0,2.125,3.908l6.8,13.841s-1.479.154-4.439-1.366S878.908,213.16,878.908,213.16ZM749.8,473.7l2.125.9h0C751.45,474.762,750.693,474.4,749.8,473.7Z" transform="translate(-132.648 -70.349)" fill="url(#linear-gradient)"/>
    <path id="Path_2044" data-name="Path 2044" d="M844,184.29c2.735,1.692,2.822,8.92,2.4,14.719-.3,4.243-.86,7.717-.86,7.717l17.8,45.5s6.6-32.423,6.7-46.9a11.242,11.242,0,0,0-.49-3.365C866.443,191.536,849,185.747,844,184.29Z" transform="translate(-153.241 -78.307)" fill="#67647e"/>
    <path id="Path_2045" data-name="Path 2045" d="M842.51,183.89s.482.118,1.316.362a2.483,2.483,0,0,0-1.316-.362Z" transform="translate(-153.033 -78.269)" fill="#67647e"/>
    <path id="Path_2046" data-name="Path 2046" d="M849.655,791.818l7.166,5.428s4.447,0,4.447,4.225,10.89,8.441,10.89,8.441,16.206,4.822,28.68,0c4.043-1.565,5.282-4.243,4.809-7.509-.989-6.812-9.462-16.121-15.561-22.951-4.12-4.6-6.021-10.711-6.83-15.994a50.226,50.226,0,0,1-.482-11.444l-26.236-1.963a19.1,19.1,0,0,1,0,12.928,17.031,17.031,0,0,1-2.3,4.143c-3.2,4.27-4.3,10.974-4.611,16.284A62.716,62.716,0,0,0,849.655,791.818Z" transform="translate(-154.01 -132.245)" fill="#67647e"/>
    <path id="Path_2047" data-name="Path 2047" d="M787,804.711s2,6.333,20.791,8.45,16.06-12.521,16.06-12.521.095-.416.215-1.167a47.307,47.307,0,0,0,.069-14.963c-.654-3.854-.086-10.539.731-16.664.963-7.292,2.28-13.8,2.28-13.8l-29.11,2.262s-.508,6.233-.8,12.53c-.095,1.963-.172,3.926-.2,5.718a14.755,14.755,0,0,1-2.512,7.554,48.566,48.566,0,0,0-6.951,17.731,42.287,42.287,0,0,0-.533,4.306A5.3,5.3,0,0,0,787,804.711Z" transform="translate(-145.273 -132.626)" fill="#67647e"/>
    <path id="Path_2048" data-name="Path 2048" d="M849.656,795.337l7.166,5.428s4.447,0,4.447,4.225,10.89,8.441,10.89,8.441,16.206,4.822,28.68,0c4.043-1.565,5.282-4.243,4.809-7.509-.387,0-.757.054-1.067.063-5.11.172-10.082,1.619-15.166,2.1a71.707,71.707,0,0,1-8.705.145,28.905,28.905,0,0,1-4.3-.353c-3.441-.642-6.632-2.515-9.7-4.351a5.556,5.556,0,0,1-1.935-1.592,8.037,8.037,0,0,1-.86-2.424,16.626,16.626,0,0,0-7.587-9.517,32.25,32.25,0,0,0-6.684-3.031,62.725,62.725,0,0,0,.017,8.377Z" transform="translate(-154.011 -135.764)" fill="#67647e"/>
    <path id="Path_2049" data-name="Path 2049" d="M787,809.5s2,6.333,20.791,8.45,16.06-12.521,16.06-12.521.095-.416.215-1.167c-.86.47-1.591.9-1.927,1.1-1.72,1.058-3.26,2.515-5.049,3.5-4.3,2.379-9.462,1.674-14.314.9-2.28-.362-4.559-.724-6.83-1.167a16.644,16.644,0,0,1-5-1.556,29.752,29.752,0,0,1-3.372-2.406,42.267,42.267,0,0,0-.533,4.306A5.078,5.078,0,0,0,787,809.5Z" transform="translate(-145.273 -137.413)" fill="#67647e"/>
    <path id="Path_2050" data-name="Path 2050" d="M849.656,795.337l7.166,5.428s4.447,0,4.447,4.225,10.89,8.441,10.89,8.441,16.206,4.822,28.68,0c4.043-1.565,5.282-4.243,4.809-7.509-.387,0-.757.054-1.067.063-5.11.172-10.082,1.619-15.166,2.1a71.707,71.707,0,0,1-8.705.145,28.905,28.905,0,0,1-4.3-.353c-3.441-.642-6.632-2.515-9.7-4.351a5.556,5.556,0,0,1-1.935-1.592,8.037,8.037,0,0,1-.86-2.424,16.626,16.626,0,0,0-7.587-9.517,32.25,32.25,0,0,0-6.684-3.031,62.725,62.725,0,0,0,.017,8.377Z" transform="translate(-154.011 -135.764)" opacity="0.1"/>
    <path id="Path_2051" data-name="Path 2051" d="M787,809.5s2,6.333,20.791,8.45,16.06-12.521,16.06-12.521.095-.416.215-1.167c-.86.47-1.591.9-1.927,1.1-1.72,1.058-3.26,2.515-5.049,3.5-4.3,2.379-9.462,1.674-14.314.9-2.28-.362-4.559-.724-6.83-1.167a16.644,16.644,0,0,1-5-1.556,29.752,29.752,0,0,1-3.372-2.406,42.267,42.267,0,0,0-.533,4.306A5.078,5.078,0,0,0,787,809.5Z" transform="translate(-145.273 -137.413)" opacity="0.1"/>
    <path id="Path_2052" data-name="Path 2052" d="M857.68,750.05a19.1,19.1,0,0,1,0,12.928c7.527,1.348,21.557,4.071,26.718.479a50.226,50.226,0,0,1-.482-11.444Z" transform="translate(-155.153 -132.245)" opacity="0.1"/>
    <path id="Path_2053" data-name="Path 2053" d="M798.91,768.841c5.316.4,19.621,1.185,27.63-1,.963-7.292,2.28-13.8,2.28-13.8l-29.11,2.262S799.2,762.545,798.91,768.841Z" transform="translate(-146.938 -132.626)" opacity="0.1"/>
    <path id="Path_2054" data-name="Path 2054" d="M774.51,525.637s.447,5.654,1.161,13.57c1.609,17.967,4.576,47.631,6.882,50.046,3.3,3.483,1.867,29.085.576,33.608s0,37.091,0,37.091a173.689,173.689,0,0,1,4.731,41.614c-.43,21.712,5.591,33.02,5.591,33.02s28.387,2.714,34.262-3.058,0-51.674,0-51.674-10.632-37.516-8.052-42.944,5.591-18.546,5.591-18.546V572.679c4.172-7.237,6.021-17.189,6.821-26.181a144.762,144.762,0,0,0,.06-23.123s5.342,11.489,10.787,22.852c4.92,10.268,9.927,20.427,11.183,21.929,2.581,3.166.43,17.641,0,24.878s4.731,21.712,4.731,21.712c-6.452,4.071-7.742,52.018-7.742,52.018s4.731,11.761-5.161,24.878-6.021,38-4.731,37.091,27.527,6.785,32.688,0S884.643,703.4,884.643,703.4s-2.581-19,3.011-36.187c4.146-12.738,9.23-42.6,11.587-57.229a61.285,61.285,0,0,0,.422-16.067c-1.084-10.684-2.753-30.46-2.159-46.138.2-5.111.06-13.235-.267-22.761-1.11-32.658-4.464-81.727-4.464-81.727l-23.312-16.61L854.071,415.72l-3.768.606-70.211,11.408-2.727,36.422Z" transform="translate(-143.527 -100.371)" fill="#444053"/>
    <path id="Path_2055" data-name="Path 2055" d="M884.91,427.86l1.23,7.111s10.323,52.018,12.473,78.706,11.183,19,11.183,19a43.349,43.349,0,0,1,2.89-6.477c-1.11-32.658-4.465-81.727-4.465-81.727Z" transform="translate(-158.96 -101.529)" opacity="0.1"/>
    <path id="Path_2056" data-name="Path 2056" d="M799.18,204.11s48.172,40.556,39.277,32.414c-4.869-4.469-1.557-23.521,2.434-39.805,3.286-13.434,7.028-25,7.028-25s-42.047-41.37-38.993-7.545c1.075,11.923.181,20.4-1.428,26.389C804.548,201.541,799.18,204.11,799.18,204.11Z" transform="translate(-146.976 -75.122)" fill="#efb7b9"/>
    <path id="Path_2057" data-name="Path 2057" d="M802.536,197.8l30.538,25.1,8.886-10.4s7.6-3.465,8.172.452,2.727,28.045-1.72,30.306-10.176,3.772-15.191,3.022-10.615-6.64-14.34-8.9-17.488-14.022-17.488-14.022l-6.882-10.1Z" transform="translate(-146.323 -79.595)" opacity="0.1"/>
    <path id="Path_2058" data-name="Path 2058" d="M802.536,198.8l30.538,25.1,8.886-10.4s7.6-3.465,8.172.452,2.727,28.045-1.72,30.306-10.176,3.772-15.191,3.022-10.615-6.64-14.34-8.9-17.488-14.022-17.488-14.022l-6.882-10.1Z" transform="translate(-146.323 -79.691)" fill="#a36468"/>
    <path id="Path_2059" data-name="Path 2059" d="M774.51,525.7s.447,5.654,1.161,13.57c9.462.38,27.819,1.556,40.705,5.1a67.359,67.359,0,0,0,15.707,2.162,144.762,144.762,0,0,0,.06-23.123s5.342,11.489,10.787,22.852a108.469,108.469,0,0,0,13.875-1.891l-5.738-78.407s.189-26.317-.757-49.6l-70.219,11.435-2.727,36.422Z" transform="translate(-143.527 -100.432)" opacity="0.1"/>
    <path id="Path_2060" data-name="Path 2060" d="M830.323,221.051s-20.86-23.983-25.806-20.174-8.146,13.09-8.146,13.09l16.989,19.6Z" transform="translate(-146.583 -79.85)" opacity="0.1"/>
    <path id="Path_2061" data-name="Path 2061" d="M829.323,220.051s-20.86-23.983-25.806-20.174-8.146,13.09-8.146,13.09l16.989,19.6Z" transform="translate(-146.443 -79.754)" fill="#a36468"/>
    <path id="Path_2062" data-name="Path 2062" d="M853.043,236.139,841,220.263s1.892-15.008,6.3-13.09,5.746,9.6,5.746,9.6Z" transform="translate(-152.822 -80.473)" opacity="0.1"/>
    <path id="Path_2063" data-name="Path 2063" d="M854.053,234.979,842.07,219.1s1.893-15.008,6.3-13.09,5.686,9.6,5.686,9.6Z" transform="translate(-152.971 -80.362)" fill="#a36468"/>
    <path id="Path_2064" data-name="Path 2064" d="M789.883,206.55s24.7,28.045,39.441,29.926c1.333.172,2.667.407,3.983.688,3.854.8,12.249,0,10.916-23.187l1.858-4.107,11.475,7.391,3.871,33.165,6.882,85.038,10.176,94.691s-31.252-3.166-40,5.129S827.3,390.052,827.3,390.052l-23.94-108.56L777.84,211.679Z" transform="translate(-143.993 -80.43)" opacity="0.1"/>
    <path id="Path_2065" data-name="Path 2065" d="M777.84,215.682,803.362,285.5l23.94,108.56s2.443,53.52,11.183,45.233c2.856-2.714,8.12-4.2,13.91-4.967a119.976,119.976,0,0,1,21.436-.507c2.856.163,4.654.344,4.654.344L868.3,339.467l-6.882-85.038-3.871-33.165-11.467-7.391-1.867,4.107c0,.606.06,1.2.086,1.809.809,21.422-7.252,22.182-10.994,21.4-1.325-.28-2.649-.516-3.991-.688-10.443-1.348-25.875-15.8-33.987-24.1-3.346-3.438-5.454-5.826-5.454-5.826Z" transform="translate(-143.993 -80.814)" opacity="0.1"/>
    <path id="Path_2066" data-name="Path 2066" d="M777.84,212.682,803.362,282.5l23.94,108.56s2.443,53.52,11.183,45.233c2.856-2.714,8.12-4.2,13.91-4.967a119.976,119.976,0,0,1,21.436-.507c2.856.163,4.654.344,4.654.344L868.3,336.467l-6.882-85.038-3.871-33.165-11.467-7.391-1.867,4.107c0,.606.06,1.2.086,1.809.809,21.422-7.252,22.182-10.994,21.4-1.325-.28-2.649-.516-3.991-.688-10.443-1.348-25.875-15.8-33.987-24.1-3.346-3.438-5.454-5.826-5.454-5.826Z" transform="translate(-143.993 -80.528)" fill="#7c52dd"/>
    <path id="Path_2067" data-name="Path 2067" d="M855,215.327c0,.606.06,1.2.086,1.809l.2.145c3.028,2.1,7.888,37.544,7.888,37.544l6.305,90.313,11.613,67.4s1.523,7.681,3.518,18.654c2.856.163,4.654.344,4.654.344l-10.176-94.718L872.2,251.776l-3.871-33.165-11.467-7.391Z" transform="translate(-154.779 -80.875)" opacity="0.1"/>
    <path id="Path_2068" data-name="Path 2068" d="M845.82,208.64s6.882,5.862,9.91,7.961,7.888,37.544,7.888,37.544l6.305,90.313,11.613,67.4s10.323,52.018,12.473,78.706,11.183,19,11.183,19,6.744-20.807,22.8-22.01,7.742-10.711,7.742-10.711-9.4-71.26-15.587-83.953a5.974,5.974,0,0,0-.327-.633,40.9,40.9,0,0,1-2.976-8.911c-6.116-24.281-13.935-84.134-13.935-84.134l-4.877-74.182c-12.482-21.4-51.191-20.653-51.191-20.653Z" transform="translate(-153.495 -80.221)" fill="#67647e"/>
    <path id="Path_2069" data-name="Path 2069" d="M777.84,212.679l25.522,69.813,23.94,108.56s2.443,53.52,11.183,45.233c2.856-2.714,8.12-4.2,13.91-4.967-.1-18.4-.637-51.421-3.157-65.3a193.716,193.716,0,0,1-2.718-38.448l-31.26-71.622s-23.51-30.478-23.656-34.839c-.052-1.61,1.617-4.6,3.733-7.735-3.346-3.438-5.454-5.826-5.454-5.826Z" transform="translate(-143.993 -80.525)" opacity="0.1"/>
    <path id="Path_2070" data-name="Path 2070" d="M850.066,522.122l-5.729-78.407s.43-58.5-3.157-78.253a193.355,193.355,0,0,1-2.727-38.448L807.2,255.391s-23.51-30.478-23.656-34.839,12.31-18.862,12.31-18.862-27.217,3.347-30.8,16.157-23.226,17.795-23.226,17.795-9.462,9.047-9.316,34.983,30.107,46.283,30.107,46.283,5.015,48.852.714,70.871-.576,129.059-.576,129.059,28.817.308,46.882,5.283S850.066,522.122,850.066,522.122Z" transform="translate(-137.656 -79.966)" fill="#67647e"/>
    <path id="Path_2071" data-name="Path 2071" d="M803.239,415.752l-22.082,87.9s-3.011,7.843-18.495,1.809-60.5-25.629-60.5-25.629-4.017-6.939,3.441-19.749l22.512-69.361Z" transform="translate(-133.263 -97.988)" fill="#b07473"/>
    <path id="Path_2072" data-name="Path 2072" d="M734.624,388.835l-35.7-41.28-22.8-9.725-9.359,49.639L710.107,437Z" transform="translate(-93.206 -32.206)" fill="#e1e7ef"/>
    <path id="Path_2073" data-name="Path 2073" d="M739.665,476.59s10.615,6.559,13.411,6.785,12.671,19.83,8.5,19.676-13.875-5.428-12.9-2.714,7.295,10.856,9.135,10.087,2.692,5.971-5.161,3.619-18.279-4.415-18.279-4.415-5.591-4.3-5.806-7.346-5.049-19.116-5.049-19.116Z" transform="translate(-136.398 -106.174)" fill="#efb7b9"/>
    <path id="Path_2074" data-name="Path 2074" d="M930.874,216.335s-9.187-20.852-14.675-27.755-29.428-14.312-31.828-12.276,12.043,13.47,14.624,14.936-16.68,15.081-17.067,15.379-15.054-1.375-7.527,3.827,29.781,10.5,29.781,10.5a10.765,10.765,0,0,1,8.6,2.162C917.094,226.4,930.874,216.335,930.874,216.335Z" transform="translate(-157.191 -77.513)" fill="#efb7b9"/>
    <path id="Path_2075" data-name="Path 2075" d="M718.133,476.836A64.374,64.374,0,0,0,723,488.914c2.15-2.045,22.684-9.164,22.684-9.164l-2.28-3.7-3.716-6.025s-18.305-4.18-21.419,0C717.221,471.426,717.411,474.014,718.133,476.836Z" transform="translate(-135.563 -105.371)" opacity="0.1"/>
    <path id="Path_2076" data-name="Path 2076" d="M717.133,475.836A64.371,64.371,0,0,0,722,487.914c2.151-2.045,22.684-9.164,22.684-9.164l-2.28-3.7-3.716-6.025s-18.305-4.18-21.419,0C716.221,470.426,716.411,473.014,717.133,475.836Z" transform="translate(-135.423 -105.276)" fill="#a36468"/>
    <path id="Path_2077" data-name="Path 2077" d="M915.842,223.8a32.349,32.349,0,0,0,2.323,4.469c3.312,5.491,8.327,11.969,8.327,11.969s19.561-9.463,19.561-9.879-5.935-10.25-10.761-18c-1.953-3.13-3.716-5.9-4.834-7.518,0,0-7.3,16.067-14.512,16.175C914.061,221.043,915.068,221.839,915.842,223.8Z" transform="translate(-163.148 -80.267)" opacity="0.1"/>
    <path id="Path_2078" data-name="Path 2078" d="M916.842,224.8a32.363,32.363,0,0,0,2.323,4.469c3.312,5.491,8.327,11.969,8.327,11.969s19.561-9.463,19.561-9.879-5.935-10.25-10.761-18c-1.953-3.13-3.716-5.9-4.834-7.518,0,0-7.3,16.067-14.512,16.175C915.061,222.043,916.068,222.839,916.842,224.8Z" transform="translate(-163.287 -80.362)" fill="#a36468"/>
    <path id="Path_2079" data-name="Path 2079" d="M742.45,341.971l2.512-7.916L709.71,331.45l13.17,1.475,16.774,3.781-1.29,5.265Z" transform="translate(-99.209 -31.598)" fill="#b07473"/>
    <path id="Path_2080" data-name="Path 2080" d="M717.133,475.836c3.888-1.927,14.262-5.935,25.273-.787l-3.716-6.025s-18.305-4.18-21.419,0C716.221,470.426,716.411,473.014,717.133,475.836Z" transform="translate(-135.423 -105.276)" opacity="0.1"/>
    <path id="Path_2081" data-name="Path 2081" d="M714.811,407.848c.086,1.312.163,2.624.241,3.926.215,3.99.361,7.943.456,11.761.43,17.677-.267,32.26-.267,32.26s13.333-8.44,27.527-1.357l1.428-28.605v-.5l1.454-12.512,4.714-40.411s8.886-56.089,11.613-58.2-20.215-47.495-20.215-47.495L730,276.825l-7.312,51.864v26.534S713.228,384.028,714.811,407.848Z" transform="translate(-135.157 -86.166)" fill="#67647e"/>
    <path id="Path_2082" data-name="Path 2082" d="M916.51,224.023l2.753,5.745c3.312,5.491,8.327,11.969,8.327,11.969s19.561-9.463,19.561-9.879-5.935-10.25-10.761-18c-1.488-1.809-2.391-2.8-2.391-2.8C939.736,225.977,916.51,224.023,916.51,224.023Z" transform="translate(-163.377 -80.859)" opacity="0.1"/>
    <path id="Path_2083" data-name="Path 2083" d="M897.17,221.54l8.034,4.234s9.892,14.022,12.757,15.533,4.3,1.357,4.3,1.357l-8.456-17.641s23.226,1.954,17.488-12.973c0,0,25.953,29.854,28.817,41.922,0,0,14.34,25.023,10.9,37.39s-17.35,14.773-27.389,11.01-40.86-20.355-40.86-20.355Z" transform="translate(-160.673 -80.954)" fill="#67647e"/>
    <path id="Path_2084" data-name="Path 2084" d="M930.67,255.05S952.322,280.534,950.6,284,931.814,260.179,930.67,255.05Z" transform="translate(-165.356 -85.053)" opacity="0.1"/>
    <path id="Path_2085" data-name="Path 2085" d="M806.554,179.091s-30.469-9.653-47.673,25.177-17.781,37.245-16.92,38.9,34.262-7.536,36.129-3.465-18.925,20.807-18.925,20.807l80.568,64.231-33.849-75.666a57.378,57.378,0,0,0-9-14.538c-5.566-6.55-13.179-16.583-10.486-19.676,2.374-2.714,6.176-9.8,11.3-17.949C801.462,190.933,807.432,184.193,806.554,179.091Z" transform="translate(-138.944 -77.695)" opacity="0.2"/>
    <path id="Path_2086" data-name="Path 2086" d="M807.554,178.091s-30.469-9.653-47.673,25.177-17.781,37.245-16.92,38.9,34.262-7.536,36.129-3.465-18.925,20.807-18.925,20.807l79.707,65.136-32.989-76.571a57.382,57.382,0,0,0-9-14.538c-5.566-6.55-13.178-16.583-10.486-19.676,2.374-2.714,6.176-9.8,11.3-17.949C802.462,189.933,808.432,183.193,807.554,178.091Z" transform="translate(-139.083 -77.599)" fill="#67647e"/>
    <path id="Path_2087" data-name="Path 2087" d="M807.554,178.091s-30.469-9.653-47.673,25.177-17.781,37.245-16.92,38.9,34.262-7.536,36.129-3.465-18.925,20.807-18.925,20.807l79.707,65.136L805.3,244.393a31.641,31.641,0,0,0-5.368-8.495c-5.445-6.17-15.578-18.537-12.533-22.038,2.374-2.714,6.176-9.8,11.3-17.949C802.462,189.933,808.432,183.193,807.554,178.091Z" transform="translate(-139.083 -77.599)" opacity="0.1"/>
    <ellipse id="Ellipse_235" data-name="Ellipse 235" cx="6.305" cy="6.631" rx="6.305" ry="6.631" transform="translate(655.929 246.893)" fill="#444053"/>
    <ellipse id="Ellipse_236" data-name="Ellipse 236" cx="6.305" cy="6.631" rx="6.305" ry="6.631" transform="translate(655.929 288.055)" fill="#444053"/>
    <path id="Path_2088" data-name="Path 2088" d="M715.142,438.714c3.63.9,20.843.5,28.671,2.3v-.5L745.267,428c-8.826-1.158-28.008-3.356-30.606-1.049C711.3,429.966,710.815,437.674,715.142,438.714Z" transform="translate(-134.791 -101.346)" fill="#67647e"/>
    <path id="Path_2089" data-name="Path 2089" d="M715.142,439.714c3.63.9,20.843.5,28.671,2.3v-.5L745.267,429c-8.826-1.158-28.008-3.356-30.606-1.049C711.3,430.966,710.815,438.674,715.142,439.714Z" transform="translate(-134.791 -101.441)" opacity="0.1"/>
    <path id="Path_2090" data-name="Path 2090" d="M715.142,438.714c3.63.9,20.843.5,28.671,2.3v-.5L745.267,428c-8.826-1.158-28.008-3.356-30.606-1.049C711.3,429.966,710.815,437.674,715.142,438.714Z" transform="translate(-134.791 -101.346)" opacity="0.1"/>
    <ellipse id="Ellipse_237" data-name="Ellipse 237" cx="3.802" cy="3.999" rx="3.802" ry="3.999" transform="translate(580.299 327.327)" fill="#444053"/>
    <path id="Path_2091" data-name="Path 2091" d="M800.2,451.05l-16.06,57.6s-4.3,2.108-4.3-1.656S800.2,451.05,800.2,451.05Z" transform="translate(-144.272 -103.739)" fill="#fff" opacity="0.1"/>
    <path id="Path_2092" data-name="Path 2092" d="M810.622,187.733a34.319,34.319,0,0,0,3.174,2.379c5.462,3.619,10.323,8.54,17.29,8.54a33.641,33.641,0,0,0,11.363-1.963c3.286-13.434,7.028-25,7.028-25s-42.047-41.37-38.993-7.545C811.56,176.072,812.23,181.744,810.622,187.733Z" transform="translate(-148.534 -75.119)" opacity="0.1"/>
    <path id="Path_2093" data-name="Path 2093" d="M793.4,156.715c0,20.515,15.813,37.145,35.32,37.145s35.32-16.631,35.32-37.145-15.813-37.145-35.32-37.145A34.3,34.3,0,0,0,803.7,130.4a37.973,37.973,0,0,0-10.3,26.317Z" transform="translate(-146.168 -72.137)" fill="#efb7b9"/>
    <path id="Path_2094" data-name="Path 2094" d="M857.555,192.62a4.148,4.148,0,0,0,1.652,2.035l5.609,3.619,10.486,6.7,16.593,10.6q.585.371,1.187.678a13.652,13.652,0,0,0,12.585.181,10.765,10.765,0,0,0,5.875-7.708,13.227,13.227,0,0,0-4.49-12.665.779.779,0,0,0-.31-.172,29.743,29.743,0,0,1-9.806-5.039l-10.443-7.6-9.325-8.965-4.714-3.429a4.216,4.216,0,0,0-4.74-.181C862.879,173.622,853.254,181.185,857.555,192.62Z" transform="translate(-154.985 -76.949)" fill="#e1e7ef"/>
    <path id="Path_2095" data-name="Path 2095" d="M866.17,198.662l10.486,6.7c2.185-9.264,7.742-15.8,12.568-20.744l-10.7-9.951C870.385,178.913,867.151,193.062,866.17,198.662Z" transform="translate(-156.34 -77.39)" fill="#a36468"/>
    <path id="Path_2096" data-name="Path 2096" d="M899,218.942a13.652,13.652,0,0,0,12.585.181,10.765,10.765,0,0,0,5.875-7.708,13.228,13.228,0,0,0-4.49-12.665,26.281,26.281,0,0,0-7.14,4.713,21.256,21.256,0,0,0-6.176,10.223,22.77,22.77,0,0,0-.654,5.256Z" transform="translate(-160.929 -79.686)" opacity="0.1"/>
    <path id="Path_2097" data-name="Path 2097" d="M793.4,156.716a38.584,38.584,0,0,0,3.286,15.66,21.145,21.145,0,0,1,4.748,7.925c2.391,3.058,3.329,4.786,6.521,6.9,1.282-1.42,4.172-2.28,4.7-4.116,1.333-4.731.576-9.788.508-14.719,0-2.189.292-4.777,2.125-5.826,1.523-.9,3.441-.253,4.938.633s2.985,2.035,4.705,2.244c2.581.308,4.938-1.6,6.383-3.845s2.28-4.867,3.647-7.165c1.806-3.031,4.473-5.356,7.1-7.617,3-2.605,5.918-5.491,9.118-7.825,1.91-1.4,4.2-2.054,6.082-3.465l.3-.235c-8.884-13.207-24.875-18.848-39.535-13.947s-24.618,19.218-24.619,35.4Z" transform="translate(-146.168 -72.137)" opacity="0.1"/>
    <path id="Path_2098" data-name="Path 2098" d="M861.207,114.165c-.748-5.211-4.852-10.105-9.858-10.2-4.138-.072-7.664,2.877-11.329,4.894a27.364,27.364,0,0,1-24.4.9c-2.245-1.04-4.533-2.425-6.985-2.207s-4.4,1.9-6.108,3.619a43.322,43.322,0,0,0-9.256,14.746,12.891,12.891,0,0,1-2.357,4.587,17.416,17.416,0,0,1-2.942,2.054,17.122,17.122,0,0,0-6.959,11.01,25.5,25.5,0,0,0,1.265,13.344,20.663,20.663,0,0,0,4.619,7.717c1.566,1.547,3.441,2.714,5.084,4.152a22.012,22.012,0,0,1,6.882,19.8c4.576,1.1,8.963-3.2,10.323-7.934s.576-9.779.508-14.719c0-2.189.292-4.768,2.125-5.817,1.523-.9,3.441-.253,4.938.633s2.976,2.026,4.705,2.244c2.581.308,4.938-1.6,6.383-3.845s2.271-4.867,3.647-7.165c1.8-3.031,4.473-5.356,7.1-7.617,3-2.605,5.918-5.491,9.11-7.825,1.918-1.4,4.206-2.054,6.09-3.465C859.443,128.821,861.207,121,861.207,114.165Z" transform="translate(-144.383 -70.65)" fill="#585268"/>
    <path id="Path_2099" data-name="Path 2099" d="M842.51,183.89s.482.118,1.316.362a2.483,2.483,0,0,0-1.316-.362Z" transform="translate(-153.033 -78.269)" opacity="0.1"/>
    <g id="Group_350" data-name="Group 350" transform="translate(639.379 36.803)" opacity="0.1">
      <path id="Path_2100" data-name="Path 2100" d="M810.382,178.1c1.333-4.731.576-9.788.508-14.719,0-2.189.292-4.777,2.125-5.826,1.523-.9,3.441-.253,4.938.633s2.976,2.035,4.705,2.244c2.581.308,4.938-1.592,6.383-3.845s2.271-4.867,3.647-7.165c1.8-3.031,4.473-5.356,7.1-7.617,3-2.6,5.918-5.491,9.11-7.825,1.918-1.4,4.206-2.054,6.09-3.465,5.695-4.288,7.458-12.1,7.458-18.935a13.136,13.136,0,0,0-1.144-3.763,13.254,13.254,0,0,1,2.864,6.5c0,6.83-1.72,14.646-7.458,18.935-1.884,1.411-4.172,2.063-6.09,3.465-3.191,2.334-6.107,5.229-9.11,7.825-2.624,2.262-5.3,4.587-7.1,7.617-1.376,2.3-2.193,4.921-3.647,7.165s-3.819,4.152-6.383,3.845c-1.72-.208-3.183-1.366-4.705-2.244s-3.441-1.5-4.938-.633c-1.832,1.049-2.159,3.619-2.125,5.826.069,4.93.86,9.951-.508,14.719s-5.729,9.047-10.323,7.925a19.837,19.837,0,0,0,.267-2.569C805.875,185.847,809.238,182.165,810.382,178.1Z" transform="translate(-786.718 -107.82)"/>
      <path id="Path_2101" data-name="Path 2101" d="M785.681,167.62c1.566,1.547,3.441,2.714,5.084,4.152a20.437,20.437,0,0,1,4.482,5.708,19.777,19.777,0,0,0-2.761-2.994c-1.652-1.438-3.518-2.605-5.084-4.152a17.6,17.6,0,0,1-3.131-4.324,16.376,16.376,0,0,0,1.411,1.61Z" transform="translate(-784.27 -113.368)"/>
    </g>
    <path id="Path_2102" data-name="Path 2102" d="M840.049,523.242c.628,1.963,1.523,3.881,1.643,5.953.206,3.519-1.841,6.8-1.987,10.331-.172,4.107,2.2,7.789,4.473,11.127-2.693,0-5.634-.977-7-3.411a11.505,11.505,0,0,1-1.006-2.976c-2.434-10.214-4.8-21.386-.568-30.921a13.74,13.74,0,0,1,2.8-4.415C839.111,513.743,838.509,518.474,840.049,523.242Z" transform="translate(-151.741 -109.257)" opacity="0.1"/>
    <path id="Path_2103" data-name="Path 2103" d="M919.37,440.987l7.148-10.141c1.72-2.452,3.5-5,4.12-7.979.671-3.266-.112-6.649-.215-9.951v-1.131a5.954,5.954,0,0,0-.327-.633,40.889,40.889,0,0,1-2.976-8.911,10.929,10.929,0,0,0-2.374,3.845c-3.329,8.54-.249,18.564-3,27.321C920.953,435.921,919.663,438.327,919.37,440.987Z" transform="translate(-163.777 -99.086)" opacity="0.1"/>
    <path id="Path_2104" data-name="Path 2104" d="M894.194,784.41a29.272,29.272,0,0,1-24.714,5.148" transform="translate(-156.803 -135.521)" opacity="0.1"/>
    <path id="Path_2105" data-name="Path 2105" d="M825.073,785.869a17.6,17.6,0,0,1-13.564,5.108,17.842,17.842,0,0,1-12.819-6.917" transform="translate(-146.907 -135.487)" opacity="0.1"/>
    <path id="Path_2106" data-name="Path 2106" d="M873.24,634.435a16,16,0,0,0,17.858-8.3" transform="translate(-157.328 -120.431)" opacity="0.1"/>
    <path id="Path_2107" data-name="Path 2107" d="M823.345,660.113a22.944,22.944,0,0,1-15.355-4.433" transform="translate(-148.207 -123.248)" opacity="0.1"/>
    <path id="Path_2108" data-name="Path 2108" d="M858.19,721c4.585,1.963,8.671,5.012,13.135,7.237s9.634,3.691,14.366,2.135" transform="translate(-155.225 -129.475)" opacity="0.1"/>
    <ellipse id="Ellipse_238" data-name="Ellipse 238" cx="73.221" cy="22.209" rx="73.221" ry="22.209" transform="translate(382.124 560.522)" fill="#5f5d7e"/>
    <ellipse id="Ellipse_239" data-name="Ellipse 239" cx="14.649" cy="4.442" rx="14.649" ry="4.442" transform="translate(440.695 571.133)" opacity="0.1"/>
    <rect id="Rectangle_581" data-name="Rectangle 581" width="15.054" height="117.154" transform="translate(447.199 458.421)" fill="#5f5d7e"/>
    <path id="Path_2109" data-name="Path 2109" d="M575.914,579.669v13.57c-3.011-.977-9.884-5.093-15.054-8.332V573.87H564Z" transform="translate(-113.661 -115.449)" opacity="0.1"/>
    <path id="Path_2110" data-name="Path 2110" d="M537.13,514.865s49.7-13.452,62.073-23.521,60.946,37.317,54.529,55.184-29.781,30.831-29.781,30.831-64.619,11.055-75.613-12S537.13,514.865,537.13,514.865Z" transform="translate(-110.344 -107.448)" fill="#474157"/>
    <path id="Path_2111" data-name="Path 2111" d="M537.13,514.865s49.7-13.452,62.073-23.521,60.946,37.317,54.529,55.184-29.781,30.831-29.781,30.831-64.619,11.055-75.613-12S537.13,514.865,537.13,514.865Z" transform="translate(-110.344 -107.448)" opacity="0.1"/>
    <path id="Path_2112" data-name="Path 2112" d="M532.13,508.865s49.7-13.452,62.073-23.521,60.946,37.317,54.529,55.184-29.781,30.831-29.781,30.831-64.619,11.055-75.613-12S532.13,508.865,532.13,508.865Z" transform="translate(-109.645 -106.876)" fill="#474157"/>
    <path id="Path_2113" data-name="Path 2113" d="M650.8,409.571a2.793,2.793,0,0,1-.551-.081,1.093,1.093,0,0,1,.551.081Z" transform="translate(-126.157 -99.776)" opacity="0.1"/>
    <path id="Path_2114" data-name="Path 2114" d="M473.793,467.15c-4.963-1.276-18.649-2.452-25.161,20.518A104.825,104.825,0,0,1,442.86,503.2c-6.254,13.489-14.314,41.216,21.17,47.323l85.161,20.355s45.591,5.88,48.6,3.619,2.581-7.237,2.581-7.237-50.322,0-60.215-16.284-10.323-38.448-10.323-38.448,1.239-34.223-50.753-44.166C477.328,468.027,475.556,467.6,473.793,467.15Z" transform="translate(-96.401 -105.22)" fill="#474157"/>
    <path id="Path_2115" data-name="Path 2115" d="M473.793,467.32c-4.963-1.276-18.649-2.452-25.161,20.518a105.315,105.315,0,0,1-5.772,15.542c-6.254,13.48-14.314,41.216,21.17,47.323l85.161,20.355s45.591,5.88,48.6,3.619,2.581-7.237,2.581-7.237-50.322,0-60.215-16.284-10.323-38.448-10.323-38.448,1.239-34.223-50.753-44.166C477.328,468.2,475.556,467.772,473.793,467.32Z" transform="translate(-96.401 -105.236)" opacity="0.1"/>
    <path id="Path_2116" data-name="Path 2116" d="M668.007,440.107a13.366,13.366,0,0,0-13.29-11.7c-10.933.217-42.15,1.61-61.178,10.458-4.181,1.945-8.37,3.836-12.671,5.428-3.888,1.456-8.525,3.781-10.821,7.12s-56.344,47.043,21.505,89.109c0,0,41.72,12.493,58.064-16.818,0,0,11.613-31.491,10.753-42.393s7.742-40.3,7.742-40.3S668.093,440.7,668.007,440.107Z" transform="translate(-112.094 -101.581)" fill="#474157"/>
    <path id="Path_2117" data-name="Path 2117" d="M667.929,448.962a13.044,13.044,0,0,0-13.29-10.793c-12.25.217-49.953,1.809-67.466,12.91,0,0-13.333,8.35-17.2,8.35s-56.344,43.424,21.505,82.261c0,0,41.72,11.525,58.064-15.533,0,0,11.613-29.067,10.753-39.127s7.742-37.209,7.742-37.209S668.015,449.505,667.929,448.962Z" transform="translate(-112.017 -102.511)" opacity="0.1"/>
    <rect id="Rectangle_582" data-name="Rectangle 582" width="13.763" height="30.822" transform="translate(500.532 438.971)" fill="#5f5d7e"/>
  </g>
</svg>
