<svg xmlns="http://www.w3.org/2000/svg" width="59.483" height="56.827" viewBox="0 0 59.483 56.827">
  <g id="_001-data" data-name="001-data" transform="translate(-43 -20)">
    <path id="Path_1591" data-name="Path 1591" d="M55.653.5H3.831A3.755,3.755,0,0,0,0,4.164V44.449a3.755,3.755,0,0,0,3.832,3.664H7.107a.833.833,0,1,0,0-1.665H3.831a2.048,2.048,0,0,1-2.09-2V41.291H33.458v1.435h-.69a1.678,1.678,0,0,0-1.712,1.638v2.085H12.4a.833.833,0,1,0,0,1.665h8.37V51.1H18.142a3.117,3.117,0,0,0-3.18,3.041v1.8a1.422,1.422,0,0,0,1.451,1.388H43a1.422,1.422,0,0,0,1.451-1.388v-1.8a3.117,3.117,0,0,0-3.18-3.041H38.647V50.047H54.741a1.678,1.678,0,0,0,1.712-1.638v-.392a3.709,3.709,0,0,0,2.965-3.568l.066-40.285A3.754,3.754,0,0,0,55.653.5ZM32.8,39.308V35.318H54.712v3.991Zm2.4-5.656V31.9h17.11v1.752Zm17.11,7.321v1.752H35.2V40.973Zm-29.8,7.14h8.543v.3a1.678,1.678,0,0,0,1.712,1.637h4.138V51.1H22.512Zm18.764,4.651a1.41,1.41,0,0,1,1.439,1.376v1.521H16.7V54.14a1.41,1.41,0,0,1,1.439-1.376Zm13.436-4.383H32.8v-3.99H54.712Zm2.965-3.932a2,2,0,0,1-1.224,1.817v-1.9a1.678,1.678,0,0,0-1.712-1.637h-.69V41.291h3.627Zm0-4.823H56.425c.018-.094.029-4.336.029-4.336a1.678,1.678,0,0,0-1.712-1.638h-.69V31.9h.69a1.678,1.678,0,0,0,1.712-1.638V26.217a1.678,1.678,0,0,0-1.712-1.638H49.824a.833.833,0,1,0,0,1.665h4.888v3.991H32.8V26.244h11.61a.833.833,0,1,0,0-1.665H32.768a1.678,1.678,0,0,0-1.712,1.638v4.046A1.678,1.678,0,0,0,32.768,31.9h.69v1.752h-.69a1.678,1.678,0,0,0-1.712,1.638s.011,4.242.029,4.336H1.741v-27.8H57.677Zm0-29.466H1.8v-6a2.048,2.048,0,0,1,2.09-2H55.587a2.048,2.048,0,0,1,2.09,2Zm0,0" transform="translate(43 19.5)" fill="#fff"/>
  </g>
</svg>
